%
M48
M72
T01C0.02362
T02C0.03200
T03C0.03937
T04C0.04000
T05C0.04331
T06C0.04724
T07C0.08661
T08C0.09449
T09C0.11811
%
T01
X65167Y65550
X102667Y151800
X146417Y149300
X188917Y181800
X205167Y186800
X257667Y189300
X272667Y189300
X277667Y186800
X285167Y201800
X280167Y204300
X315167Y236800
X310167Y239300
X285167Y251800
X267667Y251800
X285167Y269300
X282667Y274300
X277667Y276800
X272667Y279300
X242667Y264300
X198917Y281800
X190167Y248050
X138917Y206800
X131417Y206800
X147667Y194300
X97667Y195550
X83917Y209300
X63927Y210560
X42667Y211800
X8917Y200550
X21417Y184300
X110167Y297735
X133917Y305550
X120167Y314300
X103917Y316800
X98917Y321800
X93917Y326800
X96417Y335550
X46417Y313050
X20167Y296800
X15167Y290550
X13917Y301800
X7667Y306800
X46417Y284300
X167667Y319300
X342667Y261800
X432667Y264300
X442667Y269300
X532667Y314300
X561417Y316800
X567667Y316800
X577667Y318050
X582667Y320550
X572667Y304300
X597667Y293050
X605167Y298050
X587667Y286800
X642667Y334300
X527667Y371800
X517667Y381800
X513917Y336800
X452667Y321800
X432667Y324300
X352667Y369300
X310167Y136800
X315167Y139300
T02
X152667Y211800
X162667Y211800
X175167Y211800
X197667Y211800
X207667Y211800
X220167Y211800
X242667Y211800
X252667Y211800
X265167Y211800
X297667Y201800
X265167Y241800
X220167Y241800
X175167Y241800
X277667Y171800
X287667Y171800
X297667Y171800
X297667Y151800
X297667Y121800
X287667Y121800
X277667Y121800
X297667Y101800
X297667Y71800
X287667Y71800
X277667Y71800
T03
X72824Y350422
X82667Y350422
X92509Y350422
X232824Y350422
X242667Y350422
X252509Y350422
X332824Y350422
X342667Y350422
X352509Y350422
X432824Y350422
X442667Y350422
X452509Y350422
X632824Y350422
X642667Y350422
X652509Y350422
X732824Y350422
X742667Y350422
X752509Y350422
X752509Y250422
X742667Y250422
X732824Y250422
X652509Y250422
X642667Y250422
X632824Y250422
X632824Y150422
X642667Y150422
X652509Y150422
X732824Y150422
X742667Y150422
X752509Y150422
X752509Y50422
X742667Y50422
X732824Y50422
X652509Y50422
X642667Y50422
X632824Y50422
X552509Y50422
X542667Y50422
X532824Y50422
X452509Y50422
X442667Y50422
X432824Y50422
X352509Y50422
X342667Y50422
X332824Y50422
X332824Y150422
X342667Y150422
X352509Y150422
X432824Y150422
X442667Y150422
X452509Y150422
X532824Y150422
X542667Y150422
X552509Y150422
X452509Y250422
X442667Y250422
X432824Y250422
X352509Y250422
X342667Y250422
X332824Y250422
X252509Y250422
X242667Y250422
X232824Y250422
T04
X47667Y11800
X57667Y11800
X67667Y11800
X77667Y11800
X87667Y11800
X97667Y11800
X107667Y11800
X117667Y11800
X117667Y21800
X107667Y21800
X97667Y21800
X87667Y21800
X77667Y21800
X67667Y21800
X57667Y21800
X47667Y21800
X27667Y316800
X17667Y316800
X17667Y326800
X27667Y326800
X27667Y336800
X17667Y336800
X17667Y346800
X27667Y346800
X27667Y356800
X17667Y356800
X17667Y366800
X27667Y366800
X27667Y376800
X17667Y376800
X17667Y386800
X27667Y386800
X107667Y336800
X127667Y331800
X137667Y331800
X147667Y331800
X157667Y331800
X167667Y331800
X177667Y331800
X187667Y331800
X197667Y331800
X197667Y341800
X187667Y341800
X177667Y341800
X167667Y341800
X157667Y341800
X147667Y341800
X137667Y341800
X127667Y341800
X532667Y341800
X542667Y341800
X552667Y341800
X562667Y341800
X572667Y341800
X582667Y341800
X592667Y341800
X602667Y341800
X602667Y331800
X592667Y331800
X582667Y331800
X572667Y331800
X562667Y331800
X552667Y331800
X542667Y331800
X532667Y331800
T05
X132007Y49300
X120196Y49300
X86732Y49300
X76102Y49300
X42637Y49300
X30826Y49300
X30826Y94300
X42637Y94300
X76102Y94300
X86732Y94300
X120196Y94300
X132007Y94300
X132007Y139300
X120196Y139300
X86732Y139300
X76102Y139300
X42637Y139300
X30826Y139300
X30826Y184300
X42637Y184300
X76102Y184300
X86732Y184300
X120196Y184300
X132007Y184300
X132007Y229300
X120196Y229300
X86732Y229300
X76102Y229300
X42637Y229300
X30826Y229300
X30826Y274300
X42637Y274300
X76102Y274300
X86732Y274300
X120196Y274300
X132007Y274300
T06
X247509Y61957
X227824Y61957
X227824Y81643
X247509Y81643
X247509Y111957
X227824Y111957
X227824Y131643
X247509Y131643
X247509Y161957
X227824Y161957
X227824Y181643
X247509Y181643
X177509Y181643
X157824Y181643
X157824Y161957
X177509Y161957
X177509Y131643
X157824Y131643
X157824Y111957
X177509Y111957
X177509Y81643
X157824Y81643
X157824Y61957
X177509Y61957
T07
X759989Y76800
X725344Y76800
X659989Y76800
X625344Y76800
X559989Y76800
X525344Y76800
X459989Y76800
X425344Y76800
X359989Y76800
X325344Y76800
X225344Y276800
X259989Y276800
X325344Y276800
X359989Y276800
X425344Y276800
X459989Y276800
X325344Y176800
X359989Y176800
X425344Y176800
X459989Y176800
X525344Y176800
X559989Y176800
X625344Y176800
X659989Y176800
X725344Y176800
X759989Y176800
X659989Y276800
X625344Y276800
X725344Y276800
X759989Y276800
X759989Y376800
X725344Y376800
X659989Y376800
X625344Y376800
X459989Y376800
X425344Y376800
X359989Y376800
X325344Y376800
X259989Y376800
X225344Y376800
X99989Y376800
X65344Y376800
T08
X152667Y276800
X172175Y276800
X172175Y258296
X153159Y258296
X153159Y295304
X172175Y295304
X162667Y358296
X162667Y376800
X162667Y395304
X542667Y395304
X542667Y376800
X542667Y358296
X552175Y295304
X533159Y295304
X532667Y276800
X552175Y276800
X552175Y258296
X533159Y258296
T09
X765167Y18050
X765167Y414300
X20167Y414300
X20167Y19300
X56417Y49300
X106417Y49300
X106417Y94300
X56417Y94300
X56417Y139300
X106417Y139300
X106417Y184300
X56417Y184300
X56417Y229300
X106417Y229300
X106417Y274300
X56417Y274300
X340167Y219300
X340167Y414300
X602667Y414300
X685167Y219300
X602667Y19300
X340167Y19300
M30
