G75*
%MOIN*%
%OFA0B0*%
%FSLAX25Y25*%
%IPPOS*%
%LPD*%
%AMOC8*
5,1,8,0,0,1.08239X$1,22.5*
%
%ADD10C,0.00001*%
%ADD11C,0.00000*%
D10*
X0001800Y0411800D02*
X0001806Y0412283D01*
X0001823Y0412766D01*
X0001853Y0413248D01*
X0001893Y0413730D01*
X0001946Y0414210D01*
X0002010Y0414689D01*
X0002085Y0415167D01*
X0002173Y0415642D01*
X0002271Y0416115D01*
X0002381Y0416586D01*
X0002502Y0417054D01*
X0002635Y0417519D01*
X0002779Y0417980D01*
X0002934Y0418438D01*
X0003100Y0418892D01*
X0003276Y0419342D01*
X0003464Y0419787D01*
X0003662Y0420228D01*
X0003871Y0420664D01*
X0004091Y0421094D01*
X0004321Y0421520D01*
X0004561Y0421939D01*
X0004811Y0422353D01*
X0005071Y0422760D01*
X0005340Y0423161D01*
X0005620Y0423556D01*
X0005908Y0423943D01*
X0006206Y0424324D01*
X0006514Y0424697D01*
X0006830Y0425062D01*
X0007155Y0425420D01*
X0007488Y0425770D01*
X0007830Y0426112D01*
X0008180Y0426445D01*
X0008538Y0426770D01*
X0008903Y0427086D01*
X0009276Y0427394D01*
X0009657Y0427692D01*
X0010044Y0427980D01*
X0010439Y0428260D01*
X0010840Y0428529D01*
X0011247Y0428789D01*
X0011661Y0429039D01*
X0012080Y0429279D01*
X0012506Y0429509D01*
X0012936Y0429729D01*
X0013372Y0429938D01*
X0013813Y0430136D01*
X0014258Y0430324D01*
X0014708Y0430500D01*
X0015162Y0430666D01*
X0015620Y0430821D01*
X0016081Y0430965D01*
X0016546Y0431098D01*
X0017014Y0431219D01*
X0017485Y0431329D01*
X0017958Y0431427D01*
X0018433Y0431515D01*
X0018911Y0431590D01*
X0019390Y0431654D01*
X0019870Y0431707D01*
X0020352Y0431747D01*
X0020834Y0431777D01*
X0021317Y0431794D01*
X0021800Y0431800D01*
D11*
X0021800Y0001800D02*
X0761800Y0001800D01*
X0758394Y0019300D02*
X0758396Y0019453D01*
X0758402Y0019607D01*
X0758412Y0019760D01*
X0758426Y0019912D01*
X0758444Y0020065D01*
X0758466Y0020216D01*
X0758491Y0020367D01*
X0758521Y0020518D01*
X0758555Y0020668D01*
X0758592Y0020816D01*
X0758633Y0020964D01*
X0758678Y0021110D01*
X0758727Y0021256D01*
X0758780Y0021400D01*
X0758836Y0021542D01*
X0758896Y0021683D01*
X0758960Y0021823D01*
X0759027Y0021961D01*
X0759098Y0022097D01*
X0759173Y0022231D01*
X0759250Y0022363D01*
X0759332Y0022493D01*
X0759416Y0022621D01*
X0759504Y0022747D01*
X0759595Y0022870D01*
X0759689Y0022991D01*
X0759787Y0023109D01*
X0759887Y0023225D01*
X0759991Y0023338D01*
X0760097Y0023449D01*
X0760206Y0023557D01*
X0760318Y0023662D01*
X0760432Y0023763D01*
X0760550Y0023862D01*
X0760669Y0023958D01*
X0760791Y0024051D01*
X0760916Y0024140D01*
X0761043Y0024227D01*
X0761172Y0024309D01*
X0761303Y0024389D01*
X0761436Y0024465D01*
X0761571Y0024538D01*
X0761708Y0024607D01*
X0761847Y0024672D01*
X0761987Y0024734D01*
X0762129Y0024792D01*
X0762272Y0024847D01*
X0762417Y0024898D01*
X0762563Y0024945D01*
X0762710Y0024988D01*
X0762858Y0025027D01*
X0763007Y0025063D01*
X0763157Y0025094D01*
X0763308Y0025122D01*
X0763459Y0025146D01*
X0763612Y0025166D01*
X0763764Y0025182D01*
X0763917Y0025194D01*
X0764070Y0025202D01*
X0764223Y0025206D01*
X0764377Y0025206D01*
X0764530Y0025202D01*
X0764683Y0025194D01*
X0764836Y0025182D01*
X0764988Y0025166D01*
X0765141Y0025146D01*
X0765292Y0025122D01*
X0765443Y0025094D01*
X0765593Y0025063D01*
X0765742Y0025027D01*
X0765890Y0024988D01*
X0766037Y0024945D01*
X0766183Y0024898D01*
X0766328Y0024847D01*
X0766471Y0024792D01*
X0766613Y0024734D01*
X0766753Y0024672D01*
X0766892Y0024607D01*
X0767029Y0024538D01*
X0767164Y0024465D01*
X0767297Y0024389D01*
X0767428Y0024309D01*
X0767557Y0024227D01*
X0767684Y0024140D01*
X0767809Y0024051D01*
X0767931Y0023958D01*
X0768050Y0023862D01*
X0768168Y0023763D01*
X0768282Y0023662D01*
X0768394Y0023557D01*
X0768503Y0023449D01*
X0768609Y0023338D01*
X0768713Y0023225D01*
X0768813Y0023109D01*
X0768911Y0022991D01*
X0769005Y0022870D01*
X0769096Y0022747D01*
X0769184Y0022621D01*
X0769268Y0022493D01*
X0769350Y0022363D01*
X0769427Y0022231D01*
X0769502Y0022097D01*
X0769573Y0021961D01*
X0769640Y0021823D01*
X0769704Y0021683D01*
X0769764Y0021542D01*
X0769820Y0021400D01*
X0769873Y0021256D01*
X0769922Y0021110D01*
X0769967Y0020964D01*
X0770008Y0020816D01*
X0770045Y0020668D01*
X0770079Y0020518D01*
X0770109Y0020367D01*
X0770134Y0020216D01*
X0770156Y0020065D01*
X0770174Y0019912D01*
X0770188Y0019760D01*
X0770198Y0019607D01*
X0770204Y0019453D01*
X0770206Y0019300D01*
X0770204Y0019147D01*
X0770198Y0018993D01*
X0770188Y0018840D01*
X0770174Y0018688D01*
X0770156Y0018535D01*
X0770134Y0018384D01*
X0770109Y0018233D01*
X0770079Y0018082D01*
X0770045Y0017932D01*
X0770008Y0017784D01*
X0769967Y0017636D01*
X0769922Y0017490D01*
X0769873Y0017344D01*
X0769820Y0017200D01*
X0769764Y0017058D01*
X0769704Y0016917D01*
X0769640Y0016777D01*
X0769573Y0016639D01*
X0769502Y0016503D01*
X0769427Y0016369D01*
X0769350Y0016237D01*
X0769268Y0016107D01*
X0769184Y0015979D01*
X0769096Y0015853D01*
X0769005Y0015730D01*
X0768911Y0015609D01*
X0768813Y0015491D01*
X0768713Y0015375D01*
X0768609Y0015262D01*
X0768503Y0015151D01*
X0768394Y0015043D01*
X0768282Y0014938D01*
X0768168Y0014837D01*
X0768050Y0014738D01*
X0767931Y0014642D01*
X0767809Y0014549D01*
X0767684Y0014460D01*
X0767557Y0014373D01*
X0767428Y0014291D01*
X0767297Y0014211D01*
X0767164Y0014135D01*
X0767029Y0014062D01*
X0766892Y0013993D01*
X0766753Y0013928D01*
X0766613Y0013866D01*
X0766471Y0013808D01*
X0766328Y0013753D01*
X0766183Y0013702D01*
X0766037Y0013655D01*
X0765890Y0013612D01*
X0765742Y0013573D01*
X0765593Y0013537D01*
X0765443Y0013506D01*
X0765292Y0013478D01*
X0765141Y0013454D01*
X0764988Y0013434D01*
X0764836Y0013418D01*
X0764683Y0013406D01*
X0764530Y0013398D01*
X0764377Y0013394D01*
X0764223Y0013394D01*
X0764070Y0013398D01*
X0763917Y0013406D01*
X0763764Y0013418D01*
X0763612Y0013434D01*
X0763459Y0013454D01*
X0763308Y0013478D01*
X0763157Y0013506D01*
X0763007Y0013537D01*
X0762858Y0013573D01*
X0762710Y0013612D01*
X0762563Y0013655D01*
X0762417Y0013702D01*
X0762272Y0013753D01*
X0762129Y0013808D01*
X0761987Y0013866D01*
X0761847Y0013928D01*
X0761708Y0013993D01*
X0761571Y0014062D01*
X0761436Y0014135D01*
X0761303Y0014211D01*
X0761172Y0014291D01*
X0761043Y0014373D01*
X0760916Y0014460D01*
X0760791Y0014549D01*
X0760669Y0014642D01*
X0760550Y0014738D01*
X0760432Y0014837D01*
X0760318Y0014938D01*
X0760206Y0015043D01*
X0760097Y0015151D01*
X0759991Y0015262D01*
X0759887Y0015375D01*
X0759787Y0015491D01*
X0759689Y0015609D01*
X0759595Y0015730D01*
X0759504Y0015853D01*
X0759416Y0015979D01*
X0759332Y0016107D01*
X0759250Y0016237D01*
X0759173Y0016369D01*
X0759098Y0016503D01*
X0759027Y0016639D01*
X0758960Y0016777D01*
X0758896Y0016917D01*
X0758836Y0017058D01*
X0758780Y0017200D01*
X0758727Y0017344D01*
X0758678Y0017490D01*
X0758633Y0017636D01*
X0758592Y0017784D01*
X0758555Y0017932D01*
X0758521Y0018082D01*
X0758491Y0018233D01*
X0758466Y0018384D01*
X0758444Y0018535D01*
X0758426Y0018688D01*
X0758412Y0018840D01*
X0758402Y0018993D01*
X0758396Y0019147D01*
X0758394Y0019300D01*
X0761800Y0001800D02*
X0762283Y0001806D01*
X0762766Y0001823D01*
X0763249Y0001853D01*
X0763730Y0001893D01*
X0764211Y0001946D01*
X0764690Y0002010D01*
X0765167Y0002085D01*
X0765643Y0002173D01*
X0766116Y0002271D01*
X0766586Y0002381D01*
X0767054Y0002502D01*
X0767519Y0002635D01*
X0767980Y0002779D01*
X0768438Y0002934D01*
X0768892Y0003100D01*
X0769342Y0003277D01*
X0769787Y0003464D01*
X0770228Y0003663D01*
X0770664Y0003871D01*
X0771094Y0004091D01*
X0771520Y0004321D01*
X0771939Y0004561D01*
X0772353Y0004811D01*
X0772760Y0005071D01*
X0773161Y0005340D01*
X0773556Y0005620D01*
X0773943Y0005908D01*
X0774324Y0006207D01*
X0774697Y0006514D01*
X0775062Y0006830D01*
X0775420Y0007155D01*
X0775770Y0007488D01*
X0776112Y0007830D01*
X0776445Y0008180D01*
X0776770Y0008538D01*
X0777086Y0008903D01*
X0777393Y0009276D01*
X0777692Y0009657D01*
X0777980Y0010044D01*
X0778260Y0010439D01*
X0778529Y0010840D01*
X0778789Y0011247D01*
X0779039Y0011661D01*
X0779279Y0012080D01*
X0779509Y0012506D01*
X0779729Y0012936D01*
X0779937Y0013372D01*
X0780136Y0013813D01*
X0780323Y0014258D01*
X0780500Y0014708D01*
X0780666Y0015162D01*
X0780821Y0015620D01*
X0780965Y0016081D01*
X0781098Y0016546D01*
X0781219Y0017014D01*
X0781329Y0017484D01*
X0781427Y0017957D01*
X0781515Y0018433D01*
X0781590Y0018910D01*
X0781654Y0019389D01*
X0781707Y0019870D01*
X0781747Y0020351D01*
X0781777Y0020834D01*
X0781794Y0021317D01*
X0781800Y0021800D01*
X0781800Y0411800D01*
X0758394Y0414300D02*
X0758396Y0414453D01*
X0758402Y0414607D01*
X0758412Y0414760D01*
X0758426Y0414912D01*
X0758444Y0415065D01*
X0758466Y0415216D01*
X0758491Y0415367D01*
X0758521Y0415518D01*
X0758555Y0415668D01*
X0758592Y0415816D01*
X0758633Y0415964D01*
X0758678Y0416110D01*
X0758727Y0416256D01*
X0758780Y0416400D01*
X0758836Y0416542D01*
X0758896Y0416683D01*
X0758960Y0416823D01*
X0759027Y0416961D01*
X0759098Y0417097D01*
X0759173Y0417231D01*
X0759250Y0417363D01*
X0759332Y0417493D01*
X0759416Y0417621D01*
X0759504Y0417747D01*
X0759595Y0417870D01*
X0759689Y0417991D01*
X0759787Y0418109D01*
X0759887Y0418225D01*
X0759991Y0418338D01*
X0760097Y0418449D01*
X0760206Y0418557D01*
X0760318Y0418662D01*
X0760432Y0418763D01*
X0760550Y0418862D01*
X0760669Y0418958D01*
X0760791Y0419051D01*
X0760916Y0419140D01*
X0761043Y0419227D01*
X0761172Y0419309D01*
X0761303Y0419389D01*
X0761436Y0419465D01*
X0761571Y0419538D01*
X0761708Y0419607D01*
X0761847Y0419672D01*
X0761987Y0419734D01*
X0762129Y0419792D01*
X0762272Y0419847D01*
X0762417Y0419898D01*
X0762563Y0419945D01*
X0762710Y0419988D01*
X0762858Y0420027D01*
X0763007Y0420063D01*
X0763157Y0420094D01*
X0763308Y0420122D01*
X0763459Y0420146D01*
X0763612Y0420166D01*
X0763764Y0420182D01*
X0763917Y0420194D01*
X0764070Y0420202D01*
X0764223Y0420206D01*
X0764377Y0420206D01*
X0764530Y0420202D01*
X0764683Y0420194D01*
X0764836Y0420182D01*
X0764988Y0420166D01*
X0765141Y0420146D01*
X0765292Y0420122D01*
X0765443Y0420094D01*
X0765593Y0420063D01*
X0765742Y0420027D01*
X0765890Y0419988D01*
X0766037Y0419945D01*
X0766183Y0419898D01*
X0766328Y0419847D01*
X0766471Y0419792D01*
X0766613Y0419734D01*
X0766753Y0419672D01*
X0766892Y0419607D01*
X0767029Y0419538D01*
X0767164Y0419465D01*
X0767297Y0419389D01*
X0767428Y0419309D01*
X0767557Y0419227D01*
X0767684Y0419140D01*
X0767809Y0419051D01*
X0767931Y0418958D01*
X0768050Y0418862D01*
X0768168Y0418763D01*
X0768282Y0418662D01*
X0768394Y0418557D01*
X0768503Y0418449D01*
X0768609Y0418338D01*
X0768713Y0418225D01*
X0768813Y0418109D01*
X0768911Y0417991D01*
X0769005Y0417870D01*
X0769096Y0417747D01*
X0769184Y0417621D01*
X0769268Y0417493D01*
X0769350Y0417363D01*
X0769427Y0417231D01*
X0769502Y0417097D01*
X0769573Y0416961D01*
X0769640Y0416823D01*
X0769704Y0416683D01*
X0769764Y0416542D01*
X0769820Y0416400D01*
X0769873Y0416256D01*
X0769922Y0416110D01*
X0769967Y0415964D01*
X0770008Y0415816D01*
X0770045Y0415668D01*
X0770079Y0415518D01*
X0770109Y0415367D01*
X0770134Y0415216D01*
X0770156Y0415065D01*
X0770174Y0414912D01*
X0770188Y0414760D01*
X0770198Y0414607D01*
X0770204Y0414453D01*
X0770206Y0414300D01*
X0770204Y0414147D01*
X0770198Y0413993D01*
X0770188Y0413840D01*
X0770174Y0413688D01*
X0770156Y0413535D01*
X0770134Y0413384D01*
X0770109Y0413233D01*
X0770079Y0413082D01*
X0770045Y0412932D01*
X0770008Y0412784D01*
X0769967Y0412636D01*
X0769922Y0412490D01*
X0769873Y0412344D01*
X0769820Y0412200D01*
X0769764Y0412058D01*
X0769704Y0411917D01*
X0769640Y0411777D01*
X0769573Y0411639D01*
X0769502Y0411503D01*
X0769427Y0411369D01*
X0769350Y0411237D01*
X0769268Y0411107D01*
X0769184Y0410979D01*
X0769096Y0410853D01*
X0769005Y0410730D01*
X0768911Y0410609D01*
X0768813Y0410491D01*
X0768713Y0410375D01*
X0768609Y0410262D01*
X0768503Y0410151D01*
X0768394Y0410043D01*
X0768282Y0409938D01*
X0768168Y0409837D01*
X0768050Y0409738D01*
X0767931Y0409642D01*
X0767809Y0409549D01*
X0767684Y0409460D01*
X0767557Y0409373D01*
X0767428Y0409291D01*
X0767297Y0409211D01*
X0767164Y0409135D01*
X0767029Y0409062D01*
X0766892Y0408993D01*
X0766753Y0408928D01*
X0766613Y0408866D01*
X0766471Y0408808D01*
X0766328Y0408753D01*
X0766183Y0408702D01*
X0766037Y0408655D01*
X0765890Y0408612D01*
X0765742Y0408573D01*
X0765593Y0408537D01*
X0765443Y0408506D01*
X0765292Y0408478D01*
X0765141Y0408454D01*
X0764988Y0408434D01*
X0764836Y0408418D01*
X0764683Y0408406D01*
X0764530Y0408398D01*
X0764377Y0408394D01*
X0764223Y0408394D01*
X0764070Y0408398D01*
X0763917Y0408406D01*
X0763764Y0408418D01*
X0763612Y0408434D01*
X0763459Y0408454D01*
X0763308Y0408478D01*
X0763157Y0408506D01*
X0763007Y0408537D01*
X0762858Y0408573D01*
X0762710Y0408612D01*
X0762563Y0408655D01*
X0762417Y0408702D01*
X0762272Y0408753D01*
X0762129Y0408808D01*
X0761987Y0408866D01*
X0761847Y0408928D01*
X0761708Y0408993D01*
X0761571Y0409062D01*
X0761436Y0409135D01*
X0761303Y0409211D01*
X0761172Y0409291D01*
X0761043Y0409373D01*
X0760916Y0409460D01*
X0760791Y0409549D01*
X0760669Y0409642D01*
X0760550Y0409738D01*
X0760432Y0409837D01*
X0760318Y0409938D01*
X0760206Y0410043D01*
X0760097Y0410151D01*
X0759991Y0410262D01*
X0759887Y0410375D01*
X0759787Y0410491D01*
X0759689Y0410609D01*
X0759595Y0410730D01*
X0759504Y0410853D01*
X0759416Y0410979D01*
X0759332Y0411107D01*
X0759250Y0411237D01*
X0759173Y0411369D01*
X0759098Y0411503D01*
X0759027Y0411639D01*
X0758960Y0411777D01*
X0758896Y0411917D01*
X0758836Y0412058D01*
X0758780Y0412200D01*
X0758727Y0412344D01*
X0758678Y0412490D01*
X0758633Y0412636D01*
X0758592Y0412784D01*
X0758555Y0412932D01*
X0758521Y0413082D01*
X0758491Y0413233D01*
X0758466Y0413384D01*
X0758444Y0413535D01*
X0758426Y0413688D01*
X0758412Y0413840D01*
X0758402Y0413993D01*
X0758396Y0414147D01*
X0758394Y0414300D01*
X0761800Y0431800D02*
X0762283Y0431794D01*
X0762766Y0431777D01*
X0763249Y0431747D01*
X0763730Y0431707D01*
X0764211Y0431654D01*
X0764690Y0431590D01*
X0765167Y0431515D01*
X0765643Y0431427D01*
X0766116Y0431329D01*
X0766586Y0431219D01*
X0767054Y0431098D01*
X0767519Y0430965D01*
X0767980Y0430821D01*
X0768438Y0430666D01*
X0768892Y0430500D01*
X0769342Y0430323D01*
X0769787Y0430136D01*
X0770228Y0429937D01*
X0770664Y0429729D01*
X0771094Y0429509D01*
X0771520Y0429279D01*
X0771939Y0429039D01*
X0772353Y0428789D01*
X0772760Y0428529D01*
X0773161Y0428260D01*
X0773556Y0427980D01*
X0773943Y0427692D01*
X0774324Y0427393D01*
X0774697Y0427086D01*
X0775062Y0426770D01*
X0775420Y0426445D01*
X0775770Y0426112D01*
X0776112Y0425770D01*
X0776445Y0425420D01*
X0776770Y0425062D01*
X0777086Y0424697D01*
X0777393Y0424324D01*
X0777692Y0423943D01*
X0777980Y0423556D01*
X0778260Y0423161D01*
X0778529Y0422760D01*
X0778789Y0422353D01*
X0779039Y0421939D01*
X0779279Y0421520D01*
X0779509Y0421094D01*
X0779729Y0420664D01*
X0779937Y0420228D01*
X0780136Y0419787D01*
X0780323Y0419342D01*
X0780500Y0418892D01*
X0780666Y0418438D01*
X0780821Y0417980D01*
X0780965Y0417519D01*
X0781098Y0417054D01*
X0781219Y0416586D01*
X0781329Y0416116D01*
X0781427Y0415643D01*
X0781515Y0415167D01*
X0781590Y0414690D01*
X0781654Y0414211D01*
X0781707Y0413730D01*
X0781747Y0413249D01*
X0781777Y0412766D01*
X0781794Y0412283D01*
X0781800Y0411800D01*
X0761800Y0431800D02*
X0021800Y0431800D01*
X0013394Y0414300D02*
X0013396Y0414453D01*
X0013402Y0414607D01*
X0013412Y0414760D01*
X0013426Y0414912D01*
X0013444Y0415065D01*
X0013466Y0415216D01*
X0013491Y0415367D01*
X0013521Y0415518D01*
X0013555Y0415668D01*
X0013592Y0415816D01*
X0013633Y0415964D01*
X0013678Y0416110D01*
X0013727Y0416256D01*
X0013780Y0416400D01*
X0013836Y0416542D01*
X0013896Y0416683D01*
X0013960Y0416823D01*
X0014027Y0416961D01*
X0014098Y0417097D01*
X0014173Y0417231D01*
X0014250Y0417363D01*
X0014332Y0417493D01*
X0014416Y0417621D01*
X0014504Y0417747D01*
X0014595Y0417870D01*
X0014689Y0417991D01*
X0014787Y0418109D01*
X0014887Y0418225D01*
X0014991Y0418338D01*
X0015097Y0418449D01*
X0015206Y0418557D01*
X0015318Y0418662D01*
X0015432Y0418763D01*
X0015550Y0418862D01*
X0015669Y0418958D01*
X0015791Y0419051D01*
X0015916Y0419140D01*
X0016043Y0419227D01*
X0016172Y0419309D01*
X0016303Y0419389D01*
X0016436Y0419465D01*
X0016571Y0419538D01*
X0016708Y0419607D01*
X0016847Y0419672D01*
X0016987Y0419734D01*
X0017129Y0419792D01*
X0017272Y0419847D01*
X0017417Y0419898D01*
X0017563Y0419945D01*
X0017710Y0419988D01*
X0017858Y0420027D01*
X0018007Y0420063D01*
X0018157Y0420094D01*
X0018308Y0420122D01*
X0018459Y0420146D01*
X0018612Y0420166D01*
X0018764Y0420182D01*
X0018917Y0420194D01*
X0019070Y0420202D01*
X0019223Y0420206D01*
X0019377Y0420206D01*
X0019530Y0420202D01*
X0019683Y0420194D01*
X0019836Y0420182D01*
X0019988Y0420166D01*
X0020141Y0420146D01*
X0020292Y0420122D01*
X0020443Y0420094D01*
X0020593Y0420063D01*
X0020742Y0420027D01*
X0020890Y0419988D01*
X0021037Y0419945D01*
X0021183Y0419898D01*
X0021328Y0419847D01*
X0021471Y0419792D01*
X0021613Y0419734D01*
X0021753Y0419672D01*
X0021892Y0419607D01*
X0022029Y0419538D01*
X0022164Y0419465D01*
X0022297Y0419389D01*
X0022428Y0419309D01*
X0022557Y0419227D01*
X0022684Y0419140D01*
X0022809Y0419051D01*
X0022931Y0418958D01*
X0023050Y0418862D01*
X0023168Y0418763D01*
X0023282Y0418662D01*
X0023394Y0418557D01*
X0023503Y0418449D01*
X0023609Y0418338D01*
X0023713Y0418225D01*
X0023813Y0418109D01*
X0023911Y0417991D01*
X0024005Y0417870D01*
X0024096Y0417747D01*
X0024184Y0417621D01*
X0024268Y0417493D01*
X0024350Y0417363D01*
X0024427Y0417231D01*
X0024502Y0417097D01*
X0024573Y0416961D01*
X0024640Y0416823D01*
X0024704Y0416683D01*
X0024764Y0416542D01*
X0024820Y0416400D01*
X0024873Y0416256D01*
X0024922Y0416110D01*
X0024967Y0415964D01*
X0025008Y0415816D01*
X0025045Y0415668D01*
X0025079Y0415518D01*
X0025109Y0415367D01*
X0025134Y0415216D01*
X0025156Y0415065D01*
X0025174Y0414912D01*
X0025188Y0414760D01*
X0025198Y0414607D01*
X0025204Y0414453D01*
X0025206Y0414300D01*
X0025204Y0414147D01*
X0025198Y0413993D01*
X0025188Y0413840D01*
X0025174Y0413688D01*
X0025156Y0413535D01*
X0025134Y0413384D01*
X0025109Y0413233D01*
X0025079Y0413082D01*
X0025045Y0412932D01*
X0025008Y0412784D01*
X0024967Y0412636D01*
X0024922Y0412490D01*
X0024873Y0412344D01*
X0024820Y0412200D01*
X0024764Y0412058D01*
X0024704Y0411917D01*
X0024640Y0411777D01*
X0024573Y0411639D01*
X0024502Y0411503D01*
X0024427Y0411369D01*
X0024350Y0411237D01*
X0024268Y0411107D01*
X0024184Y0410979D01*
X0024096Y0410853D01*
X0024005Y0410730D01*
X0023911Y0410609D01*
X0023813Y0410491D01*
X0023713Y0410375D01*
X0023609Y0410262D01*
X0023503Y0410151D01*
X0023394Y0410043D01*
X0023282Y0409938D01*
X0023168Y0409837D01*
X0023050Y0409738D01*
X0022931Y0409642D01*
X0022809Y0409549D01*
X0022684Y0409460D01*
X0022557Y0409373D01*
X0022428Y0409291D01*
X0022297Y0409211D01*
X0022164Y0409135D01*
X0022029Y0409062D01*
X0021892Y0408993D01*
X0021753Y0408928D01*
X0021613Y0408866D01*
X0021471Y0408808D01*
X0021328Y0408753D01*
X0021183Y0408702D01*
X0021037Y0408655D01*
X0020890Y0408612D01*
X0020742Y0408573D01*
X0020593Y0408537D01*
X0020443Y0408506D01*
X0020292Y0408478D01*
X0020141Y0408454D01*
X0019988Y0408434D01*
X0019836Y0408418D01*
X0019683Y0408406D01*
X0019530Y0408398D01*
X0019377Y0408394D01*
X0019223Y0408394D01*
X0019070Y0408398D01*
X0018917Y0408406D01*
X0018764Y0408418D01*
X0018612Y0408434D01*
X0018459Y0408454D01*
X0018308Y0408478D01*
X0018157Y0408506D01*
X0018007Y0408537D01*
X0017858Y0408573D01*
X0017710Y0408612D01*
X0017563Y0408655D01*
X0017417Y0408702D01*
X0017272Y0408753D01*
X0017129Y0408808D01*
X0016987Y0408866D01*
X0016847Y0408928D01*
X0016708Y0408993D01*
X0016571Y0409062D01*
X0016436Y0409135D01*
X0016303Y0409211D01*
X0016172Y0409291D01*
X0016043Y0409373D01*
X0015916Y0409460D01*
X0015791Y0409549D01*
X0015669Y0409642D01*
X0015550Y0409738D01*
X0015432Y0409837D01*
X0015318Y0409938D01*
X0015206Y0410043D01*
X0015097Y0410151D01*
X0014991Y0410262D01*
X0014887Y0410375D01*
X0014787Y0410491D01*
X0014689Y0410609D01*
X0014595Y0410730D01*
X0014504Y0410853D01*
X0014416Y0410979D01*
X0014332Y0411107D01*
X0014250Y0411237D01*
X0014173Y0411369D01*
X0014098Y0411503D01*
X0014027Y0411639D01*
X0013960Y0411777D01*
X0013896Y0411917D01*
X0013836Y0412058D01*
X0013780Y0412200D01*
X0013727Y0412344D01*
X0013678Y0412490D01*
X0013633Y0412636D01*
X0013592Y0412784D01*
X0013555Y0412932D01*
X0013521Y0413082D01*
X0013491Y0413233D01*
X0013466Y0413384D01*
X0013444Y0413535D01*
X0013426Y0413688D01*
X0013412Y0413840D01*
X0013402Y0413993D01*
X0013396Y0414147D01*
X0013394Y0414300D01*
X0001800Y0411800D02*
X0001800Y0021800D01*
X0013394Y0019300D02*
X0013396Y0019453D01*
X0013402Y0019607D01*
X0013412Y0019760D01*
X0013426Y0019912D01*
X0013444Y0020065D01*
X0013466Y0020216D01*
X0013491Y0020367D01*
X0013521Y0020518D01*
X0013555Y0020668D01*
X0013592Y0020816D01*
X0013633Y0020964D01*
X0013678Y0021110D01*
X0013727Y0021256D01*
X0013780Y0021400D01*
X0013836Y0021542D01*
X0013896Y0021683D01*
X0013960Y0021823D01*
X0014027Y0021961D01*
X0014098Y0022097D01*
X0014173Y0022231D01*
X0014250Y0022363D01*
X0014332Y0022493D01*
X0014416Y0022621D01*
X0014504Y0022747D01*
X0014595Y0022870D01*
X0014689Y0022991D01*
X0014787Y0023109D01*
X0014887Y0023225D01*
X0014991Y0023338D01*
X0015097Y0023449D01*
X0015206Y0023557D01*
X0015318Y0023662D01*
X0015432Y0023763D01*
X0015550Y0023862D01*
X0015669Y0023958D01*
X0015791Y0024051D01*
X0015916Y0024140D01*
X0016043Y0024227D01*
X0016172Y0024309D01*
X0016303Y0024389D01*
X0016436Y0024465D01*
X0016571Y0024538D01*
X0016708Y0024607D01*
X0016847Y0024672D01*
X0016987Y0024734D01*
X0017129Y0024792D01*
X0017272Y0024847D01*
X0017417Y0024898D01*
X0017563Y0024945D01*
X0017710Y0024988D01*
X0017858Y0025027D01*
X0018007Y0025063D01*
X0018157Y0025094D01*
X0018308Y0025122D01*
X0018459Y0025146D01*
X0018612Y0025166D01*
X0018764Y0025182D01*
X0018917Y0025194D01*
X0019070Y0025202D01*
X0019223Y0025206D01*
X0019377Y0025206D01*
X0019530Y0025202D01*
X0019683Y0025194D01*
X0019836Y0025182D01*
X0019988Y0025166D01*
X0020141Y0025146D01*
X0020292Y0025122D01*
X0020443Y0025094D01*
X0020593Y0025063D01*
X0020742Y0025027D01*
X0020890Y0024988D01*
X0021037Y0024945D01*
X0021183Y0024898D01*
X0021328Y0024847D01*
X0021471Y0024792D01*
X0021613Y0024734D01*
X0021753Y0024672D01*
X0021892Y0024607D01*
X0022029Y0024538D01*
X0022164Y0024465D01*
X0022297Y0024389D01*
X0022428Y0024309D01*
X0022557Y0024227D01*
X0022684Y0024140D01*
X0022809Y0024051D01*
X0022931Y0023958D01*
X0023050Y0023862D01*
X0023168Y0023763D01*
X0023282Y0023662D01*
X0023394Y0023557D01*
X0023503Y0023449D01*
X0023609Y0023338D01*
X0023713Y0023225D01*
X0023813Y0023109D01*
X0023911Y0022991D01*
X0024005Y0022870D01*
X0024096Y0022747D01*
X0024184Y0022621D01*
X0024268Y0022493D01*
X0024350Y0022363D01*
X0024427Y0022231D01*
X0024502Y0022097D01*
X0024573Y0021961D01*
X0024640Y0021823D01*
X0024704Y0021683D01*
X0024764Y0021542D01*
X0024820Y0021400D01*
X0024873Y0021256D01*
X0024922Y0021110D01*
X0024967Y0020964D01*
X0025008Y0020816D01*
X0025045Y0020668D01*
X0025079Y0020518D01*
X0025109Y0020367D01*
X0025134Y0020216D01*
X0025156Y0020065D01*
X0025174Y0019912D01*
X0025188Y0019760D01*
X0025198Y0019607D01*
X0025204Y0019453D01*
X0025206Y0019300D01*
X0025204Y0019147D01*
X0025198Y0018993D01*
X0025188Y0018840D01*
X0025174Y0018688D01*
X0025156Y0018535D01*
X0025134Y0018384D01*
X0025109Y0018233D01*
X0025079Y0018082D01*
X0025045Y0017932D01*
X0025008Y0017784D01*
X0024967Y0017636D01*
X0024922Y0017490D01*
X0024873Y0017344D01*
X0024820Y0017200D01*
X0024764Y0017058D01*
X0024704Y0016917D01*
X0024640Y0016777D01*
X0024573Y0016639D01*
X0024502Y0016503D01*
X0024427Y0016369D01*
X0024350Y0016237D01*
X0024268Y0016107D01*
X0024184Y0015979D01*
X0024096Y0015853D01*
X0024005Y0015730D01*
X0023911Y0015609D01*
X0023813Y0015491D01*
X0023713Y0015375D01*
X0023609Y0015262D01*
X0023503Y0015151D01*
X0023394Y0015043D01*
X0023282Y0014938D01*
X0023168Y0014837D01*
X0023050Y0014738D01*
X0022931Y0014642D01*
X0022809Y0014549D01*
X0022684Y0014460D01*
X0022557Y0014373D01*
X0022428Y0014291D01*
X0022297Y0014211D01*
X0022164Y0014135D01*
X0022029Y0014062D01*
X0021892Y0013993D01*
X0021753Y0013928D01*
X0021613Y0013866D01*
X0021471Y0013808D01*
X0021328Y0013753D01*
X0021183Y0013702D01*
X0021037Y0013655D01*
X0020890Y0013612D01*
X0020742Y0013573D01*
X0020593Y0013537D01*
X0020443Y0013506D01*
X0020292Y0013478D01*
X0020141Y0013454D01*
X0019988Y0013434D01*
X0019836Y0013418D01*
X0019683Y0013406D01*
X0019530Y0013398D01*
X0019377Y0013394D01*
X0019223Y0013394D01*
X0019070Y0013398D01*
X0018917Y0013406D01*
X0018764Y0013418D01*
X0018612Y0013434D01*
X0018459Y0013454D01*
X0018308Y0013478D01*
X0018157Y0013506D01*
X0018007Y0013537D01*
X0017858Y0013573D01*
X0017710Y0013612D01*
X0017563Y0013655D01*
X0017417Y0013702D01*
X0017272Y0013753D01*
X0017129Y0013808D01*
X0016987Y0013866D01*
X0016847Y0013928D01*
X0016708Y0013993D01*
X0016571Y0014062D01*
X0016436Y0014135D01*
X0016303Y0014211D01*
X0016172Y0014291D01*
X0016043Y0014373D01*
X0015916Y0014460D01*
X0015791Y0014549D01*
X0015669Y0014642D01*
X0015550Y0014738D01*
X0015432Y0014837D01*
X0015318Y0014938D01*
X0015206Y0015043D01*
X0015097Y0015151D01*
X0014991Y0015262D01*
X0014887Y0015375D01*
X0014787Y0015491D01*
X0014689Y0015609D01*
X0014595Y0015730D01*
X0014504Y0015853D01*
X0014416Y0015979D01*
X0014332Y0016107D01*
X0014250Y0016237D01*
X0014173Y0016369D01*
X0014098Y0016503D01*
X0014027Y0016639D01*
X0013960Y0016777D01*
X0013896Y0016917D01*
X0013836Y0017058D01*
X0013780Y0017200D01*
X0013727Y0017344D01*
X0013678Y0017490D01*
X0013633Y0017636D01*
X0013592Y0017784D01*
X0013555Y0017932D01*
X0013521Y0018082D01*
X0013491Y0018233D01*
X0013466Y0018384D01*
X0013444Y0018535D01*
X0013426Y0018688D01*
X0013412Y0018840D01*
X0013402Y0018993D01*
X0013396Y0019147D01*
X0013394Y0019300D01*
X0001800Y0021800D02*
X0001806Y0021317D01*
X0001823Y0020834D01*
X0001853Y0020351D01*
X0001893Y0019870D01*
X0001946Y0019389D01*
X0002010Y0018910D01*
X0002085Y0018433D01*
X0002173Y0017957D01*
X0002271Y0017484D01*
X0002381Y0017014D01*
X0002502Y0016546D01*
X0002635Y0016081D01*
X0002779Y0015620D01*
X0002934Y0015162D01*
X0003100Y0014708D01*
X0003277Y0014258D01*
X0003464Y0013813D01*
X0003663Y0013372D01*
X0003871Y0012936D01*
X0004091Y0012506D01*
X0004321Y0012080D01*
X0004561Y0011661D01*
X0004811Y0011247D01*
X0005071Y0010840D01*
X0005340Y0010439D01*
X0005620Y0010044D01*
X0005908Y0009657D01*
X0006207Y0009276D01*
X0006514Y0008903D01*
X0006830Y0008538D01*
X0007155Y0008180D01*
X0007488Y0007830D01*
X0007830Y0007488D01*
X0008180Y0007155D01*
X0008538Y0006830D01*
X0008903Y0006514D01*
X0009276Y0006207D01*
X0009657Y0005908D01*
X0010044Y0005620D01*
X0010439Y0005340D01*
X0010840Y0005071D01*
X0011247Y0004811D01*
X0011661Y0004561D01*
X0012080Y0004321D01*
X0012506Y0004091D01*
X0012936Y0003871D01*
X0013372Y0003663D01*
X0013813Y0003464D01*
X0014258Y0003277D01*
X0014708Y0003100D01*
X0015162Y0002934D01*
X0015620Y0002779D01*
X0016081Y0002635D01*
X0016546Y0002502D01*
X0017014Y0002381D01*
X0017484Y0002271D01*
X0017957Y0002173D01*
X0018433Y0002085D01*
X0018910Y0002010D01*
X0019389Y0001946D01*
X0019870Y0001893D01*
X0020351Y0001853D01*
X0020834Y0001823D01*
X0021317Y0001806D01*
X0021800Y0001800D01*
X0333394Y0019300D02*
X0333396Y0019453D01*
X0333402Y0019607D01*
X0333412Y0019760D01*
X0333426Y0019912D01*
X0333444Y0020065D01*
X0333466Y0020216D01*
X0333491Y0020367D01*
X0333521Y0020518D01*
X0333555Y0020668D01*
X0333592Y0020816D01*
X0333633Y0020964D01*
X0333678Y0021110D01*
X0333727Y0021256D01*
X0333780Y0021400D01*
X0333836Y0021542D01*
X0333896Y0021683D01*
X0333960Y0021823D01*
X0334027Y0021961D01*
X0334098Y0022097D01*
X0334173Y0022231D01*
X0334250Y0022363D01*
X0334332Y0022493D01*
X0334416Y0022621D01*
X0334504Y0022747D01*
X0334595Y0022870D01*
X0334689Y0022991D01*
X0334787Y0023109D01*
X0334887Y0023225D01*
X0334991Y0023338D01*
X0335097Y0023449D01*
X0335206Y0023557D01*
X0335318Y0023662D01*
X0335432Y0023763D01*
X0335550Y0023862D01*
X0335669Y0023958D01*
X0335791Y0024051D01*
X0335916Y0024140D01*
X0336043Y0024227D01*
X0336172Y0024309D01*
X0336303Y0024389D01*
X0336436Y0024465D01*
X0336571Y0024538D01*
X0336708Y0024607D01*
X0336847Y0024672D01*
X0336987Y0024734D01*
X0337129Y0024792D01*
X0337272Y0024847D01*
X0337417Y0024898D01*
X0337563Y0024945D01*
X0337710Y0024988D01*
X0337858Y0025027D01*
X0338007Y0025063D01*
X0338157Y0025094D01*
X0338308Y0025122D01*
X0338459Y0025146D01*
X0338612Y0025166D01*
X0338764Y0025182D01*
X0338917Y0025194D01*
X0339070Y0025202D01*
X0339223Y0025206D01*
X0339377Y0025206D01*
X0339530Y0025202D01*
X0339683Y0025194D01*
X0339836Y0025182D01*
X0339988Y0025166D01*
X0340141Y0025146D01*
X0340292Y0025122D01*
X0340443Y0025094D01*
X0340593Y0025063D01*
X0340742Y0025027D01*
X0340890Y0024988D01*
X0341037Y0024945D01*
X0341183Y0024898D01*
X0341328Y0024847D01*
X0341471Y0024792D01*
X0341613Y0024734D01*
X0341753Y0024672D01*
X0341892Y0024607D01*
X0342029Y0024538D01*
X0342164Y0024465D01*
X0342297Y0024389D01*
X0342428Y0024309D01*
X0342557Y0024227D01*
X0342684Y0024140D01*
X0342809Y0024051D01*
X0342931Y0023958D01*
X0343050Y0023862D01*
X0343168Y0023763D01*
X0343282Y0023662D01*
X0343394Y0023557D01*
X0343503Y0023449D01*
X0343609Y0023338D01*
X0343713Y0023225D01*
X0343813Y0023109D01*
X0343911Y0022991D01*
X0344005Y0022870D01*
X0344096Y0022747D01*
X0344184Y0022621D01*
X0344268Y0022493D01*
X0344350Y0022363D01*
X0344427Y0022231D01*
X0344502Y0022097D01*
X0344573Y0021961D01*
X0344640Y0021823D01*
X0344704Y0021683D01*
X0344764Y0021542D01*
X0344820Y0021400D01*
X0344873Y0021256D01*
X0344922Y0021110D01*
X0344967Y0020964D01*
X0345008Y0020816D01*
X0345045Y0020668D01*
X0345079Y0020518D01*
X0345109Y0020367D01*
X0345134Y0020216D01*
X0345156Y0020065D01*
X0345174Y0019912D01*
X0345188Y0019760D01*
X0345198Y0019607D01*
X0345204Y0019453D01*
X0345206Y0019300D01*
X0345204Y0019147D01*
X0345198Y0018993D01*
X0345188Y0018840D01*
X0345174Y0018688D01*
X0345156Y0018535D01*
X0345134Y0018384D01*
X0345109Y0018233D01*
X0345079Y0018082D01*
X0345045Y0017932D01*
X0345008Y0017784D01*
X0344967Y0017636D01*
X0344922Y0017490D01*
X0344873Y0017344D01*
X0344820Y0017200D01*
X0344764Y0017058D01*
X0344704Y0016917D01*
X0344640Y0016777D01*
X0344573Y0016639D01*
X0344502Y0016503D01*
X0344427Y0016369D01*
X0344350Y0016237D01*
X0344268Y0016107D01*
X0344184Y0015979D01*
X0344096Y0015853D01*
X0344005Y0015730D01*
X0343911Y0015609D01*
X0343813Y0015491D01*
X0343713Y0015375D01*
X0343609Y0015262D01*
X0343503Y0015151D01*
X0343394Y0015043D01*
X0343282Y0014938D01*
X0343168Y0014837D01*
X0343050Y0014738D01*
X0342931Y0014642D01*
X0342809Y0014549D01*
X0342684Y0014460D01*
X0342557Y0014373D01*
X0342428Y0014291D01*
X0342297Y0014211D01*
X0342164Y0014135D01*
X0342029Y0014062D01*
X0341892Y0013993D01*
X0341753Y0013928D01*
X0341613Y0013866D01*
X0341471Y0013808D01*
X0341328Y0013753D01*
X0341183Y0013702D01*
X0341037Y0013655D01*
X0340890Y0013612D01*
X0340742Y0013573D01*
X0340593Y0013537D01*
X0340443Y0013506D01*
X0340292Y0013478D01*
X0340141Y0013454D01*
X0339988Y0013434D01*
X0339836Y0013418D01*
X0339683Y0013406D01*
X0339530Y0013398D01*
X0339377Y0013394D01*
X0339223Y0013394D01*
X0339070Y0013398D01*
X0338917Y0013406D01*
X0338764Y0013418D01*
X0338612Y0013434D01*
X0338459Y0013454D01*
X0338308Y0013478D01*
X0338157Y0013506D01*
X0338007Y0013537D01*
X0337858Y0013573D01*
X0337710Y0013612D01*
X0337563Y0013655D01*
X0337417Y0013702D01*
X0337272Y0013753D01*
X0337129Y0013808D01*
X0336987Y0013866D01*
X0336847Y0013928D01*
X0336708Y0013993D01*
X0336571Y0014062D01*
X0336436Y0014135D01*
X0336303Y0014211D01*
X0336172Y0014291D01*
X0336043Y0014373D01*
X0335916Y0014460D01*
X0335791Y0014549D01*
X0335669Y0014642D01*
X0335550Y0014738D01*
X0335432Y0014837D01*
X0335318Y0014938D01*
X0335206Y0015043D01*
X0335097Y0015151D01*
X0334991Y0015262D01*
X0334887Y0015375D01*
X0334787Y0015491D01*
X0334689Y0015609D01*
X0334595Y0015730D01*
X0334504Y0015853D01*
X0334416Y0015979D01*
X0334332Y0016107D01*
X0334250Y0016237D01*
X0334173Y0016369D01*
X0334098Y0016503D01*
X0334027Y0016639D01*
X0333960Y0016777D01*
X0333896Y0016917D01*
X0333836Y0017058D01*
X0333780Y0017200D01*
X0333727Y0017344D01*
X0333678Y0017490D01*
X0333633Y0017636D01*
X0333592Y0017784D01*
X0333555Y0017932D01*
X0333521Y0018082D01*
X0333491Y0018233D01*
X0333466Y0018384D01*
X0333444Y0018535D01*
X0333426Y0018688D01*
X0333412Y0018840D01*
X0333402Y0018993D01*
X0333396Y0019147D01*
X0333394Y0019300D01*
X0595894Y0019300D02*
X0595896Y0019453D01*
X0595902Y0019607D01*
X0595912Y0019760D01*
X0595926Y0019912D01*
X0595944Y0020065D01*
X0595966Y0020216D01*
X0595991Y0020367D01*
X0596021Y0020518D01*
X0596055Y0020668D01*
X0596092Y0020816D01*
X0596133Y0020964D01*
X0596178Y0021110D01*
X0596227Y0021256D01*
X0596280Y0021400D01*
X0596336Y0021542D01*
X0596396Y0021683D01*
X0596460Y0021823D01*
X0596527Y0021961D01*
X0596598Y0022097D01*
X0596673Y0022231D01*
X0596750Y0022363D01*
X0596832Y0022493D01*
X0596916Y0022621D01*
X0597004Y0022747D01*
X0597095Y0022870D01*
X0597189Y0022991D01*
X0597287Y0023109D01*
X0597387Y0023225D01*
X0597491Y0023338D01*
X0597597Y0023449D01*
X0597706Y0023557D01*
X0597818Y0023662D01*
X0597932Y0023763D01*
X0598050Y0023862D01*
X0598169Y0023958D01*
X0598291Y0024051D01*
X0598416Y0024140D01*
X0598543Y0024227D01*
X0598672Y0024309D01*
X0598803Y0024389D01*
X0598936Y0024465D01*
X0599071Y0024538D01*
X0599208Y0024607D01*
X0599347Y0024672D01*
X0599487Y0024734D01*
X0599629Y0024792D01*
X0599772Y0024847D01*
X0599917Y0024898D01*
X0600063Y0024945D01*
X0600210Y0024988D01*
X0600358Y0025027D01*
X0600507Y0025063D01*
X0600657Y0025094D01*
X0600808Y0025122D01*
X0600959Y0025146D01*
X0601112Y0025166D01*
X0601264Y0025182D01*
X0601417Y0025194D01*
X0601570Y0025202D01*
X0601723Y0025206D01*
X0601877Y0025206D01*
X0602030Y0025202D01*
X0602183Y0025194D01*
X0602336Y0025182D01*
X0602488Y0025166D01*
X0602641Y0025146D01*
X0602792Y0025122D01*
X0602943Y0025094D01*
X0603093Y0025063D01*
X0603242Y0025027D01*
X0603390Y0024988D01*
X0603537Y0024945D01*
X0603683Y0024898D01*
X0603828Y0024847D01*
X0603971Y0024792D01*
X0604113Y0024734D01*
X0604253Y0024672D01*
X0604392Y0024607D01*
X0604529Y0024538D01*
X0604664Y0024465D01*
X0604797Y0024389D01*
X0604928Y0024309D01*
X0605057Y0024227D01*
X0605184Y0024140D01*
X0605309Y0024051D01*
X0605431Y0023958D01*
X0605550Y0023862D01*
X0605668Y0023763D01*
X0605782Y0023662D01*
X0605894Y0023557D01*
X0606003Y0023449D01*
X0606109Y0023338D01*
X0606213Y0023225D01*
X0606313Y0023109D01*
X0606411Y0022991D01*
X0606505Y0022870D01*
X0606596Y0022747D01*
X0606684Y0022621D01*
X0606768Y0022493D01*
X0606850Y0022363D01*
X0606927Y0022231D01*
X0607002Y0022097D01*
X0607073Y0021961D01*
X0607140Y0021823D01*
X0607204Y0021683D01*
X0607264Y0021542D01*
X0607320Y0021400D01*
X0607373Y0021256D01*
X0607422Y0021110D01*
X0607467Y0020964D01*
X0607508Y0020816D01*
X0607545Y0020668D01*
X0607579Y0020518D01*
X0607609Y0020367D01*
X0607634Y0020216D01*
X0607656Y0020065D01*
X0607674Y0019912D01*
X0607688Y0019760D01*
X0607698Y0019607D01*
X0607704Y0019453D01*
X0607706Y0019300D01*
X0607704Y0019147D01*
X0607698Y0018993D01*
X0607688Y0018840D01*
X0607674Y0018688D01*
X0607656Y0018535D01*
X0607634Y0018384D01*
X0607609Y0018233D01*
X0607579Y0018082D01*
X0607545Y0017932D01*
X0607508Y0017784D01*
X0607467Y0017636D01*
X0607422Y0017490D01*
X0607373Y0017344D01*
X0607320Y0017200D01*
X0607264Y0017058D01*
X0607204Y0016917D01*
X0607140Y0016777D01*
X0607073Y0016639D01*
X0607002Y0016503D01*
X0606927Y0016369D01*
X0606850Y0016237D01*
X0606768Y0016107D01*
X0606684Y0015979D01*
X0606596Y0015853D01*
X0606505Y0015730D01*
X0606411Y0015609D01*
X0606313Y0015491D01*
X0606213Y0015375D01*
X0606109Y0015262D01*
X0606003Y0015151D01*
X0605894Y0015043D01*
X0605782Y0014938D01*
X0605668Y0014837D01*
X0605550Y0014738D01*
X0605431Y0014642D01*
X0605309Y0014549D01*
X0605184Y0014460D01*
X0605057Y0014373D01*
X0604928Y0014291D01*
X0604797Y0014211D01*
X0604664Y0014135D01*
X0604529Y0014062D01*
X0604392Y0013993D01*
X0604253Y0013928D01*
X0604113Y0013866D01*
X0603971Y0013808D01*
X0603828Y0013753D01*
X0603683Y0013702D01*
X0603537Y0013655D01*
X0603390Y0013612D01*
X0603242Y0013573D01*
X0603093Y0013537D01*
X0602943Y0013506D01*
X0602792Y0013478D01*
X0602641Y0013454D01*
X0602488Y0013434D01*
X0602336Y0013418D01*
X0602183Y0013406D01*
X0602030Y0013398D01*
X0601877Y0013394D01*
X0601723Y0013394D01*
X0601570Y0013398D01*
X0601417Y0013406D01*
X0601264Y0013418D01*
X0601112Y0013434D01*
X0600959Y0013454D01*
X0600808Y0013478D01*
X0600657Y0013506D01*
X0600507Y0013537D01*
X0600358Y0013573D01*
X0600210Y0013612D01*
X0600063Y0013655D01*
X0599917Y0013702D01*
X0599772Y0013753D01*
X0599629Y0013808D01*
X0599487Y0013866D01*
X0599347Y0013928D01*
X0599208Y0013993D01*
X0599071Y0014062D01*
X0598936Y0014135D01*
X0598803Y0014211D01*
X0598672Y0014291D01*
X0598543Y0014373D01*
X0598416Y0014460D01*
X0598291Y0014549D01*
X0598169Y0014642D01*
X0598050Y0014738D01*
X0597932Y0014837D01*
X0597818Y0014938D01*
X0597706Y0015043D01*
X0597597Y0015151D01*
X0597491Y0015262D01*
X0597387Y0015375D01*
X0597287Y0015491D01*
X0597189Y0015609D01*
X0597095Y0015730D01*
X0597004Y0015853D01*
X0596916Y0015979D01*
X0596832Y0016107D01*
X0596750Y0016237D01*
X0596673Y0016369D01*
X0596598Y0016503D01*
X0596527Y0016639D01*
X0596460Y0016777D01*
X0596396Y0016917D01*
X0596336Y0017058D01*
X0596280Y0017200D01*
X0596227Y0017344D01*
X0596178Y0017490D01*
X0596133Y0017636D01*
X0596092Y0017784D01*
X0596055Y0017932D01*
X0596021Y0018082D01*
X0595991Y0018233D01*
X0595966Y0018384D01*
X0595944Y0018535D01*
X0595926Y0018688D01*
X0595912Y0018840D01*
X0595902Y0018993D01*
X0595896Y0019147D01*
X0595894Y0019300D01*
X0678394Y0219300D02*
X0678396Y0219453D01*
X0678402Y0219607D01*
X0678412Y0219760D01*
X0678426Y0219912D01*
X0678444Y0220065D01*
X0678466Y0220216D01*
X0678491Y0220367D01*
X0678521Y0220518D01*
X0678555Y0220668D01*
X0678592Y0220816D01*
X0678633Y0220964D01*
X0678678Y0221110D01*
X0678727Y0221256D01*
X0678780Y0221400D01*
X0678836Y0221542D01*
X0678896Y0221683D01*
X0678960Y0221823D01*
X0679027Y0221961D01*
X0679098Y0222097D01*
X0679173Y0222231D01*
X0679250Y0222363D01*
X0679332Y0222493D01*
X0679416Y0222621D01*
X0679504Y0222747D01*
X0679595Y0222870D01*
X0679689Y0222991D01*
X0679787Y0223109D01*
X0679887Y0223225D01*
X0679991Y0223338D01*
X0680097Y0223449D01*
X0680206Y0223557D01*
X0680318Y0223662D01*
X0680432Y0223763D01*
X0680550Y0223862D01*
X0680669Y0223958D01*
X0680791Y0224051D01*
X0680916Y0224140D01*
X0681043Y0224227D01*
X0681172Y0224309D01*
X0681303Y0224389D01*
X0681436Y0224465D01*
X0681571Y0224538D01*
X0681708Y0224607D01*
X0681847Y0224672D01*
X0681987Y0224734D01*
X0682129Y0224792D01*
X0682272Y0224847D01*
X0682417Y0224898D01*
X0682563Y0224945D01*
X0682710Y0224988D01*
X0682858Y0225027D01*
X0683007Y0225063D01*
X0683157Y0225094D01*
X0683308Y0225122D01*
X0683459Y0225146D01*
X0683612Y0225166D01*
X0683764Y0225182D01*
X0683917Y0225194D01*
X0684070Y0225202D01*
X0684223Y0225206D01*
X0684377Y0225206D01*
X0684530Y0225202D01*
X0684683Y0225194D01*
X0684836Y0225182D01*
X0684988Y0225166D01*
X0685141Y0225146D01*
X0685292Y0225122D01*
X0685443Y0225094D01*
X0685593Y0225063D01*
X0685742Y0225027D01*
X0685890Y0224988D01*
X0686037Y0224945D01*
X0686183Y0224898D01*
X0686328Y0224847D01*
X0686471Y0224792D01*
X0686613Y0224734D01*
X0686753Y0224672D01*
X0686892Y0224607D01*
X0687029Y0224538D01*
X0687164Y0224465D01*
X0687297Y0224389D01*
X0687428Y0224309D01*
X0687557Y0224227D01*
X0687684Y0224140D01*
X0687809Y0224051D01*
X0687931Y0223958D01*
X0688050Y0223862D01*
X0688168Y0223763D01*
X0688282Y0223662D01*
X0688394Y0223557D01*
X0688503Y0223449D01*
X0688609Y0223338D01*
X0688713Y0223225D01*
X0688813Y0223109D01*
X0688911Y0222991D01*
X0689005Y0222870D01*
X0689096Y0222747D01*
X0689184Y0222621D01*
X0689268Y0222493D01*
X0689350Y0222363D01*
X0689427Y0222231D01*
X0689502Y0222097D01*
X0689573Y0221961D01*
X0689640Y0221823D01*
X0689704Y0221683D01*
X0689764Y0221542D01*
X0689820Y0221400D01*
X0689873Y0221256D01*
X0689922Y0221110D01*
X0689967Y0220964D01*
X0690008Y0220816D01*
X0690045Y0220668D01*
X0690079Y0220518D01*
X0690109Y0220367D01*
X0690134Y0220216D01*
X0690156Y0220065D01*
X0690174Y0219912D01*
X0690188Y0219760D01*
X0690198Y0219607D01*
X0690204Y0219453D01*
X0690206Y0219300D01*
X0690204Y0219147D01*
X0690198Y0218993D01*
X0690188Y0218840D01*
X0690174Y0218688D01*
X0690156Y0218535D01*
X0690134Y0218384D01*
X0690109Y0218233D01*
X0690079Y0218082D01*
X0690045Y0217932D01*
X0690008Y0217784D01*
X0689967Y0217636D01*
X0689922Y0217490D01*
X0689873Y0217344D01*
X0689820Y0217200D01*
X0689764Y0217058D01*
X0689704Y0216917D01*
X0689640Y0216777D01*
X0689573Y0216639D01*
X0689502Y0216503D01*
X0689427Y0216369D01*
X0689350Y0216237D01*
X0689268Y0216107D01*
X0689184Y0215979D01*
X0689096Y0215853D01*
X0689005Y0215730D01*
X0688911Y0215609D01*
X0688813Y0215491D01*
X0688713Y0215375D01*
X0688609Y0215262D01*
X0688503Y0215151D01*
X0688394Y0215043D01*
X0688282Y0214938D01*
X0688168Y0214837D01*
X0688050Y0214738D01*
X0687931Y0214642D01*
X0687809Y0214549D01*
X0687684Y0214460D01*
X0687557Y0214373D01*
X0687428Y0214291D01*
X0687297Y0214211D01*
X0687164Y0214135D01*
X0687029Y0214062D01*
X0686892Y0213993D01*
X0686753Y0213928D01*
X0686613Y0213866D01*
X0686471Y0213808D01*
X0686328Y0213753D01*
X0686183Y0213702D01*
X0686037Y0213655D01*
X0685890Y0213612D01*
X0685742Y0213573D01*
X0685593Y0213537D01*
X0685443Y0213506D01*
X0685292Y0213478D01*
X0685141Y0213454D01*
X0684988Y0213434D01*
X0684836Y0213418D01*
X0684683Y0213406D01*
X0684530Y0213398D01*
X0684377Y0213394D01*
X0684223Y0213394D01*
X0684070Y0213398D01*
X0683917Y0213406D01*
X0683764Y0213418D01*
X0683612Y0213434D01*
X0683459Y0213454D01*
X0683308Y0213478D01*
X0683157Y0213506D01*
X0683007Y0213537D01*
X0682858Y0213573D01*
X0682710Y0213612D01*
X0682563Y0213655D01*
X0682417Y0213702D01*
X0682272Y0213753D01*
X0682129Y0213808D01*
X0681987Y0213866D01*
X0681847Y0213928D01*
X0681708Y0213993D01*
X0681571Y0214062D01*
X0681436Y0214135D01*
X0681303Y0214211D01*
X0681172Y0214291D01*
X0681043Y0214373D01*
X0680916Y0214460D01*
X0680791Y0214549D01*
X0680669Y0214642D01*
X0680550Y0214738D01*
X0680432Y0214837D01*
X0680318Y0214938D01*
X0680206Y0215043D01*
X0680097Y0215151D01*
X0679991Y0215262D01*
X0679887Y0215375D01*
X0679787Y0215491D01*
X0679689Y0215609D01*
X0679595Y0215730D01*
X0679504Y0215853D01*
X0679416Y0215979D01*
X0679332Y0216107D01*
X0679250Y0216237D01*
X0679173Y0216369D01*
X0679098Y0216503D01*
X0679027Y0216639D01*
X0678960Y0216777D01*
X0678896Y0216917D01*
X0678836Y0217058D01*
X0678780Y0217200D01*
X0678727Y0217344D01*
X0678678Y0217490D01*
X0678633Y0217636D01*
X0678592Y0217784D01*
X0678555Y0217932D01*
X0678521Y0218082D01*
X0678491Y0218233D01*
X0678466Y0218384D01*
X0678444Y0218535D01*
X0678426Y0218688D01*
X0678412Y0218840D01*
X0678402Y0218993D01*
X0678396Y0219147D01*
X0678394Y0219300D01*
X0496398Y0403219D02*
X0496400Y0403344D01*
X0496406Y0403469D01*
X0496416Y0403593D01*
X0496430Y0403717D01*
X0496447Y0403841D01*
X0496469Y0403964D01*
X0496495Y0404086D01*
X0496524Y0404208D01*
X0496557Y0404328D01*
X0496595Y0404447D01*
X0496635Y0404566D01*
X0496680Y0404682D01*
X0496728Y0404797D01*
X0496780Y0404911D01*
X0496836Y0405023D01*
X0496895Y0405133D01*
X0496957Y0405241D01*
X0497023Y0405348D01*
X0497092Y0405452D01*
X0497165Y0405553D01*
X0497240Y0405653D01*
X0497319Y0405750D01*
X0497401Y0405844D01*
X0497486Y0405936D01*
X0497573Y0406025D01*
X0497664Y0406111D01*
X0497757Y0406194D01*
X0497853Y0406275D01*
X0497951Y0406352D01*
X0498051Y0406426D01*
X0498154Y0406497D01*
X0498259Y0406564D01*
X0498367Y0406629D01*
X0498476Y0406689D01*
X0498587Y0406747D01*
X0498700Y0406800D01*
X0498814Y0406850D01*
X0498930Y0406897D01*
X0499047Y0406939D01*
X0499166Y0406978D01*
X0499286Y0407014D01*
X0499407Y0407045D01*
X0499529Y0407073D01*
X0499651Y0407096D01*
X0499775Y0407116D01*
X0499899Y0407132D01*
X0500023Y0407144D01*
X0500148Y0407152D01*
X0500273Y0407156D01*
X0500397Y0407156D01*
X0500522Y0407152D01*
X0500647Y0407144D01*
X0500771Y0407132D01*
X0500895Y0407116D01*
X0501019Y0407096D01*
X0501141Y0407073D01*
X0501263Y0407045D01*
X0501384Y0407014D01*
X0501504Y0406978D01*
X0501623Y0406939D01*
X0501740Y0406897D01*
X0501856Y0406850D01*
X0501970Y0406800D01*
X0502083Y0406747D01*
X0502194Y0406689D01*
X0502304Y0406629D01*
X0502411Y0406564D01*
X0502516Y0406497D01*
X0502619Y0406426D01*
X0502719Y0406352D01*
X0502817Y0406275D01*
X0502913Y0406194D01*
X0503006Y0406111D01*
X0503097Y0406025D01*
X0503184Y0405936D01*
X0503269Y0405844D01*
X0503351Y0405750D01*
X0503430Y0405653D01*
X0503505Y0405553D01*
X0503578Y0405452D01*
X0503647Y0405348D01*
X0503713Y0405241D01*
X0503775Y0405133D01*
X0503834Y0405023D01*
X0503890Y0404911D01*
X0503942Y0404797D01*
X0503990Y0404682D01*
X0504035Y0404566D01*
X0504075Y0404447D01*
X0504113Y0404328D01*
X0504146Y0404208D01*
X0504175Y0404086D01*
X0504201Y0403964D01*
X0504223Y0403841D01*
X0504240Y0403717D01*
X0504254Y0403593D01*
X0504264Y0403469D01*
X0504270Y0403344D01*
X0504272Y0403219D01*
X0504270Y0403094D01*
X0504264Y0402969D01*
X0504254Y0402845D01*
X0504240Y0402721D01*
X0504223Y0402597D01*
X0504201Y0402474D01*
X0504175Y0402352D01*
X0504146Y0402230D01*
X0504113Y0402110D01*
X0504075Y0401991D01*
X0504035Y0401872D01*
X0503990Y0401756D01*
X0503942Y0401641D01*
X0503890Y0401527D01*
X0503834Y0401415D01*
X0503775Y0401305D01*
X0503713Y0401197D01*
X0503647Y0401090D01*
X0503578Y0400986D01*
X0503505Y0400885D01*
X0503430Y0400785D01*
X0503351Y0400688D01*
X0503269Y0400594D01*
X0503184Y0400502D01*
X0503097Y0400413D01*
X0503006Y0400327D01*
X0502913Y0400244D01*
X0502817Y0400163D01*
X0502719Y0400086D01*
X0502619Y0400012D01*
X0502516Y0399941D01*
X0502411Y0399874D01*
X0502303Y0399809D01*
X0502194Y0399749D01*
X0502083Y0399691D01*
X0501970Y0399638D01*
X0501856Y0399588D01*
X0501740Y0399541D01*
X0501623Y0399499D01*
X0501504Y0399460D01*
X0501384Y0399424D01*
X0501263Y0399393D01*
X0501141Y0399365D01*
X0501019Y0399342D01*
X0500895Y0399322D01*
X0500771Y0399306D01*
X0500647Y0399294D01*
X0500522Y0399286D01*
X0500397Y0399282D01*
X0500273Y0399282D01*
X0500148Y0399286D01*
X0500023Y0399294D01*
X0499899Y0399306D01*
X0499775Y0399322D01*
X0499651Y0399342D01*
X0499529Y0399365D01*
X0499407Y0399393D01*
X0499286Y0399424D01*
X0499166Y0399460D01*
X0499047Y0399499D01*
X0498930Y0399541D01*
X0498814Y0399588D01*
X0498700Y0399638D01*
X0498587Y0399691D01*
X0498476Y0399749D01*
X0498366Y0399809D01*
X0498259Y0399874D01*
X0498154Y0399941D01*
X0498051Y0400012D01*
X0497951Y0400086D01*
X0497853Y0400163D01*
X0497757Y0400244D01*
X0497664Y0400327D01*
X0497573Y0400413D01*
X0497486Y0400502D01*
X0497401Y0400594D01*
X0497319Y0400688D01*
X0497240Y0400785D01*
X0497165Y0400885D01*
X0497092Y0400986D01*
X0497023Y0401090D01*
X0496957Y0401197D01*
X0496895Y0401305D01*
X0496836Y0401415D01*
X0496780Y0401527D01*
X0496728Y0401641D01*
X0496680Y0401756D01*
X0496635Y0401872D01*
X0496595Y0401991D01*
X0496557Y0402110D01*
X0496524Y0402230D01*
X0496495Y0402352D01*
X0496469Y0402474D01*
X0496447Y0402597D01*
X0496430Y0402721D01*
X0496416Y0402845D01*
X0496406Y0402969D01*
X0496400Y0403094D01*
X0496398Y0403219D01*
X0451398Y0403219D02*
X0451400Y0403344D01*
X0451406Y0403469D01*
X0451416Y0403593D01*
X0451430Y0403717D01*
X0451447Y0403841D01*
X0451469Y0403964D01*
X0451495Y0404086D01*
X0451524Y0404208D01*
X0451557Y0404328D01*
X0451595Y0404447D01*
X0451635Y0404566D01*
X0451680Y0404682D01*
X0451728Y0404797D01*
X0451780Y0404911D01*
X0451836Y0405023D01*
X0451895Y0405133D01*
X0451957Y0405241D01*
X0452023Y0405348D01*
X0452092Y0405452D01*
X0452165Y0405553D01*
X0452240Y0405653D01*
X0452319Y0405750D01*
X0452401Y0405844D01*
X0452486Y0405936D01*
X0452573Y0406025D01*
X0452664Y0406111D01*
X0452757Y0406194D01*
X0452853Y0406275D01*
X0452951Y0406352D01*
X0453051Y0406426D01*
X0453154Y0406497D01*
X0453259Y0406564D01*
X0453367Y0406629D01*
X0453476Y0406689D01*
X0453587Y0406747D01*
X0453700Y0406800D01*
X0453814Y0406850D01*
X0453930Y0406897D01*
X0454047Y0406939D01*
X0454166Y0406978D01*
X0454286Y0407014D01*
X0454407Y0407045D01*
X0454529Y0407073D01*
X0454651Y0407096D01*
X0454775Y0407116D01*
X0454899Y0407132D01*
X0455023Y0407144D01*
X0455148Y0407152D01*
X0455273Y0407156D01*
X0455397Y0407156D01*
X0455522Y0407152D01*
X0455647Y0407144D01*
X0455771Y0407132D01*
X0455895Y0407116D01*
X0456019Y0407096D01*
X0456141Y0407073D01*
X0456263Y0407045D01*
X0456384Y0407014D01*
X0456504Y0406978D01*
X0456623Y0406939D01*
X0456740Y0406897D01*
X0456856Y0406850D01*
X0456970Y0406800D01*
X0457083Y0406747D01*
X0457194Y0406689D01*
X0457304Y0406629D01*
X0457411Y0406564D01*
X0457516Y0406497D01*
X0457619Y0406426D01*
X0457719Y0406352D01*
X0457817Y0406275D01*
X0457913Y0406194D01*
X0458006Y0406111D01*
X0458097Y0406025D01*
X0458184Y0405936D01*
X0458269Y0405844D01*
X0458351Y0405750D01*
X0458430Y0405653D01*
X0458505Y0405553D01*
X0458578Y0405452D01*
X0458647Y0405348D01*
X0458713Y0405241D01*
X0458775Y0405133D01*
X0458834Y0405023D01*
X0458890Y0404911D01*
X0458942Y0404797D01*
X0458990Y0404682D01*
X0459035Y0404566D01*
X0459075Y0404447D01*
X0459113Y0404328D01*
X0459146Y0404208D01*
X0459175Y0404086D01*
X0459201Y0403964D01*
X0459223Y0403841D01*
X0459240Y0403717D01*
X0459254Y0403593D01*
X0459264Y0403469D01*
X0459270Y0403344D01*
X0459272Y0403219D01*
X0459270Y0403094D01*
X0459264Y0402969D01*
X0459254Y0402845D01*
X0459240Y0402721D01*
X0459223Y0402597D01*
X0459201Y0402474D01*
X0459175Y0402352D01*
X0459146Y0402230D01*
X0459113Y0402110D01*
X0459075Y0401991D01*
X0459035Y0401872D01*
X0458990Y0401756D01*
X0458942Y0401641D01*
X0458890Y0401527D01*
X0458834Y0401415D01*
X0458775Y0401305D01*
X0458713Y0401197D01*
X0458647Y0401090D01*
X0458578Y0400986D01*
X0458505Y0400885D01*
X0458430Y0400785D01*
X0458351Y0400688D01*
X0458269Y0400594D01*
X0458184Y0400502D01*
X0458097Y0400413D01*
X0458006Y0400327D01*
X0457913Y0400244D01*
X0457817Y0400163D01*
X0457719Y0400086D01*
X0457619Y0400012D01*
X0457516Y0399941D01*
X0457411Y0399874D01*
X0457303Y0399809D01*
X0457194Y0399749D01*
X0457083Y0399691D01*
X0456970Y0399638D01*
X0456856Y0399588D01*
X0456740Y0399541D01*
X0456623Y0399499D01*
X0456504Y0399460D01*
X0456384Y0399424D01*
X0456263Y0399393D01*
X0456141Y0399365D01*
X0456019Y0399342D01*
X0455895Y0399322D01*
X0455771Y0399306D01*
X0455647Y0399294D01*
X0455522Y0399286D01*
X0455397Y0399282D01*
X0455273Y0399282D01*
X0455148Y0399286D01*
X0455023Y0399294D01*
X0454899Y0399306D01*
X0454775Y0399322D01*
X0454651Y0399342D01*
X0454529Y0399365D01*
X0454407Y0399393D01*
X0454286Y0399424D01*
X0454166Y0399460D01*
X0454047Y0399499D01*
X0453930Y0399541D01*
X0453814Y0399588D01*
X0453700Y0399638D01*
X0453587Y0399691D01*
X0453476Y0399749D01*
X0453366Y0399809D01*
X0453259Y0399874D01*
X0453154Y0399941D01*
X0453051Y0400012D01*
X0452951Y0400086D01*
X0452853Y0400163D01*
X0452757Y0400244D01*
X0452664Y0400327D01*
X0452573Y0400413D01*
X0452486Y0400502D01*
X0452401Y0400594D01*
X0452319Y0400688D01*
X0452240Y0400785D01*
X0452165Y0400885D01*
X0452092Y0400986D01*
X0452023Y0401090D01*
X0451957Y0401197D01*
X0451895Y0401305D01*
X0451836Y0401415D01*
X0451780Y0401527D01*
X0451728Y0401641D01*
X0451680Y0401756D01*
X0451635Y0401872D01*
X0451595Y0401991D01*
X0451557Y0402110D01*
X0451524Y0402230D01*
X0451495Y0402352D01*
X0451469Y0402474D01*
X0451447Y0402597D01*
X0451430Y0402721D01*
X0451416Y0402845D01*
X0451406Y0402969D01*
X0451400Y0403094D01*
X0451398Y0403219D01*
X0411398Y0403219D02*
X0411400Y0403344D01*
X0411406Y0403469D01*
X0411416Y0403593D01*
X0411430Y0403717D01*
X0411447Y0403841D01*
X0411469Y0403964D01*
X0411495Y0404086D01*
X0411524Y0404208D01*
X0411557Y0404328D01*
X0411595Y0404447D01*
X0411635Y0404566D01*
X0411680Y0404682D01*
X0411728Y0404797D01*
X0411780Y0404911D01*
X0411836Y0405023D01*
X0411895Y0405133D01*
X0411957Y0405241D01*
X0412023Y0405348D01*
X0412092Y0405452D01*
X0412165Y0405553D01*
X0412240Y0405653D01*
X0412319Y0405750D01*
X0412401Y0405844D01*
X0412486Y0405936D01*
X0412573Y0406025D01*
X0412664Y0406111D01*
X0412757Y0406194D01*
X0412853Y0406275D01*
X0412951Y0406352D01*
X0413051Y0406426D01*
X0413154Y0406497D01*
X0413259Y0406564D01*
X0413367Y0406629D01*
X0413476Y0406689D01*
X0413587Y0406747D01*
X0413700Y0406800D01*
X0413814Y0406850D01*
X0413930Y0406897D01*
X0414047Y0406939D01*
X0414166Y0406978D01*
X0414286Y0407014D01*
X0414407Y0407045D01*
X0414529Y0407073D01*
X0414651Y0407096D01*
X0414775Y0407116D01*
X0414899Y0407132D01*
X0415023Y0407144D01*
X0415148Y0407152D01*
X0415273Y0407156D01*
X0415397Y0407156D01*
X0415522Y0407152D01*
X0415647Y0407144D01*
X0415771Y0407132D01*
X0415895Y0407116D01*
X0416019Y0407096D01*
X0416141Y0407073D01*
X0416263Y0407045D01*
X0416384Y0407014D01*
X0416504Y0406978D01*
X0416623Y0406939D01*
X0416740Y0406897D01*
X0416856Y0406850D01*
X0416970Y0406800D01*
X0417083Y0406747D01*
X0417194Y0406689D01*
X0417304Y0406629D01*
X0417411Y0406564D01*
X0417516Y0406497D01*
X0417619Y0406426D01*
X0417719Y0406352D01*
X0417817Y0406275D01*
X0417913Y0406194D01*
X0418006Y0406111D01*
X0418097Y0406025D01*
X0418184Y0405936D01*
X0418269Y0405844D01*
X0418351Y0405750D01*
X0418430Y0405653D01*
X0418505Y0405553D01*
X0418578Y0405452D01*
X0418647Y0405348D01*
X0418713Y0405241D01*
X0418775Y0405133D01*
X0418834Y0405023D01*
X0418890Y0404911D01*
X0418942Y0404797D01*
X0418990Y0404682D01*
X0419035Y0404566D01*
X0419075Y0404447D01*
X0419113Y0404328D01*
X0419146Y0404208D01*
X0419175Y0404086D01*
X0419201Y0403964D01*
X0419223Y0403841D01*
X0419240Y0403717D01*
X0419254Y0403593D01*
X0419264Y0403469D01*
X0419270Y0403344D01*
X0419272Y0403219D01*
X0419270Y0403094D01*
X0419264Y0402969D01*
X0419254Y0402845D01*
X0419240Y0402721D01*
X0419223Y0402597D01*
X0419201Y0402474D01*
X0419175Y0402352D01*
X0419146Y0402230D01*
X0419113Y0402110D01*
X0419075Y0401991D01*
X0419035Y0401872D01*
X0418990Y0401756D01*
X0418942Y0401641D01*
X0418890Y0401527D01*
X0418834Y0401415D01*
X0418775Y0401305D01*
X0418713Y0401197D01*
X0418647Y0401090D01*
X0418578Y0400986D01*
X0418505Y0400885D01*
X0418430Y0400785D01*
X0418351Y0400688D01*
X0418269Y0400594D01*
X0418184Y0400502D01*
X0418097Y0400413D01*
X0418006Y0400327D01*
X0417913Y0400244D01*
X0417817Y0400163D01*
X0417719Y0400086D01*
X0417619Y0400012D01*
X0417516Y0399941D01*
X0417411Y0399874D01*
X0417303Y0399809D01*
X0417194Y0399749D01*
X0417083Y0399691D01*
X0416970Y0399638D01*
X0416856Y0399588D01*
X0416740Y0399541D01*
X0416623Y0399499D01*
X0416504Y0399460D01*
X0416384Y0399424D01*
X0416263Y0399393D01*
X0416141Y0399365D01*
X0416019Y0399342D01*
X0415895Y0399322D01*
X0415771Y0399306D01*
X0415647Y0399294D01*
X0415522Y0399286D01*
X0415397Y0399282D01*
X0415273Y0399282D01*
X0415148Y0399286D01*
X0415023Y0399294D01*
X0414899Y0399306D01*
X0414775Y0399322D01*
X0414651Y0399342D01*
X0414529Y0399365D01*
X0414407Y0399393D01*
X0414286Y0399424D01*
X0414166Y0399460D01*
X0414047Y0399499D01*
X0413930Y0399541D01*
X0413814Y0399588D01*
X0413700Y0399638D01*
X0413587Y0399691D01*
X0413476Y0399749D01*
X0413366Y0399809D01*
X0413259Y0399874D01*
X0413154Y0399941D01*
X0413051Y0400012D01*
X0412951Y0400086D01*
X0412853Y0400163D01*
X0412757Y0400244D01*
X0412664Y0400327D01*
X0412573Y0400413D01*
X0412486Y0400502D01*
X0412401Y0400594D01*
X0412319Y0400688D01*
X0412240Y0400785D01*
X0412165Y0400885D01*
X0412092Y0400986D01*
X0412023Y0401090D01*
X0411957Y0401197D01*
X0411895Y0401305D01*
X0411836Y0401415D01*
X0411780Y0401527D01*
X0411728Y0401641D01*
X0411680Y0401756D01*
X0411635Y0401872D01*
X0411595Y0401991D01*
X0411557Y0402110D01*
X0411524Y0402230D01*
X0411495Y0402352D01*
X0411469Y0402474D01*
X0411447Y0402597D01*
X0411430Y0402721D01*
X0411416Y0402845D01*
X0411406Y0402969D01*
X0411400Y0403094D01*
X0411398Y0403219D01*
X0366398Y0403219D02*
X0366400Y0403344D01*
X0366406Y0403469D01*
X0366416Y0403593D01*
X0366430Y0403717D01*
X0366447Y0403841D01*
X0366469Y0403964D01*
X0366495Y0404086D01*
X0366524Y0404208D01*
X0366557Y0404328D01*
X0366595Y0404447D01*
X0366635Y0404566D01*
X0366680Y0404682D01*
X0366728Y0404797D01*
X0366780Y0404911D01*
X0366836Y0405023D01*
X0366895Y0405133D01*
X0366957Y0405241D01*
X0367023Y0405348D01*
X0367092Y0405452D01*
X0367165Y0405553D01*
X0367240Y0405653D01*
X0367319Y0405750D01*
X0367401Y0405844D01*
X0367486Y0405936D01*
X0367573Y0406025D01*
X0367664Y0406111D01*
X0367757Y0406194D01*
X0367853Y0406275D01*
X0367951Y0406352D01*
X0368051Y0406426D01*
X0368154Y0406497D01*
X0368259Y0406564D01*
X0368367Y0406629D01*
X0368476Y0406689D01*
X0368587Y0406747D01*
X0368700Y0406800D01*
X0368814Y0406850D01*
X0368930Y0406897D01*
X0369047Y0406939D01*
X0369166Y0406978D01*
X0369286Y0407014D01*
X0369407Y0407045D01*
X0369529Y0407073D01*
X0369651Y0407096D01*
X0369775Y0407116D01*
X0369899Y0407132D01*
X0370023Y0407144D01*
X0370148Y0407152D01*
X0370273Y0407156D01*
X0370397Y0407156D01*
X0370522Y0407152D01*
X0370647Y0407144D01*
X0370771Y0407132D01*
X0370895Y0407116D01*
X0371019Y0407096D01*
X0371141Y0407073D01*
X0371263Y0407045D01*
X0371384Y0407014D01*
X0371504Y0406978D01*
X0371623Y0406939D01*
X0371740Y0406897D01*
X0371856Y0406850D01*
X0371970Y0406800D01*
X0372083Y0406747D01*
X0372194Y0406689D01*
X0372304Y0406629D01*
X0372411Y0406564D01*
X0372516Y0406497D01*
X0372619Y0406426D01*
X0372719Y0406352D01*
X0372817Y0406275D01*
X0372913Y0406194D01*
X0373006Y0406111D01*
X0373097Y0406025D01*
X0373184Y0405936D01*
X0373269Y0405844D01*
X0373351Y0405750D01*
X0373430Y0405653D01*
X0373505Y0405553D01*
X0373578Y0405452D01*
X0373647Y0405348D01*
X0373713Y0405241D01*
X0373775Y0405133D01*
X0373834Y0405023D01*
X0373890Y0404911D01*
X0373942Y0404797D01*
X0373990Y0404682D01*
X0374035Y0404566D01*
X0374075Y0404447D01*
X0374113Y0404328D01*
X0374146Y0404208D01*
X0374175Y0404086D01*
X0374201Y0403964D01*
X0374223Y0403841D01*
X0374240Y0403717D01*
X0374254Y0403593D01*
X0374264Y0403469D01*
X0374270Y0403344D01*
X0374272Y0403219D01*
X0374270Y0403094D01*
X0374264Y0402969D01*
X0374254Y0402845D01*
X0374240Y0402721D01*
X0374223Y0402597D01*
X0374201Y0402474D01*
X0374175Y0402352D01*
X0374146Y0402230D01*
X0374113Y0402110D01*
X0374075Y0401991D01*
X0374035Y0401872D01*
X0373990Y0401756D01*
X0373942Y0401641D01*
X0373890Y0401527D01*
X0373834Y0401415D01*
X0373775Y0401305D01*
X0373713Y0401197D01*
X0373647Y0401090D01*
X0373578Y0400986D01*
X0373505Y0400885D01*
X0373430Y0400785D01*
X0373351Y0400688D01*
X0373269Y0400594D01*
X0373184Y0400502D01*
X0373097Y0400413D01*
X0373006Y0400327D01*
X0372913Y0400244D01*
X0372817Y0400163D01*
X0372719Y0400086D01*
X0372619Y0400012D01*
X0372516Y0399941D01*
X0372411Y0399874D01*
X0372303Y0399809D01*
X0372194Y0399749D01*
X0372083Y0399691D01*
X0371970Y0399638D01*
X0371856Y0399588D01*
X0371740Y0399541D01*
X0371623Y0399499D01*
X0371504Y0399460D01*
X0371384Y0399424D01*
X0371263Y0399393D01*
X0371141Y0399365D01*
X0371019Y0399342D01*
X0370895Y0399322D01*
X0370771Y0399306D01*
X0370647Y0399294D01*
X0370522Y0399286D01*
X0370397Y0399282D01*
X0370273Y0399282D01*
X0370148Y0399286D01*
X0370023Y0399294D01*
X0369899Y0399306D01*
X0369775Y0399322D01*
X0369651Y0399342D01*
X0369529Y0399365D01*
X0369407Y0399393D01*
X0369286Y0399424D01*
X0369166Y0399460D01*
X0369047Y0399499D01*
X0368930Y0399541D01*
X0368814Y0399588D01*
X0368700Y0399638D01*
X0368587Y0399691D01*
X0368476Y0399749D01*
X0368366Y0399809D01*
X0368259Y0399874D01*
X0368154Y0399941D01*
X0368051Y0400012D01*
X0367951Y0400086D01*
X0367853Y0400163D01*
X0367757Y0400244D01*
X0367664Y0400327D01*
X0367573Y0400413D01*
X0367486Y0400502D01*
X0367401Y0400594D01*
X0367319Y0400688D01*
X0367240Y0400785D01*
X0367165Y0400885D01*
X0367092Y0400986D01*
X0367023Y0401090D01*
X0366957Y0401197D01*
X0366895Y0401305D01*
X0366836Y0401415D01*
X0366780Y0401527D01*
X0366728Y0401641D01*
X0366680Y0401756D01*
X0366635Y0401872D01*
X0366595Y0401991D01*
X0366557Y0402110D01*
X0366524Y0402230D01*
X0366495Y0402352D01*
X0366469Y0402474D01*
X0366447Y0402597D01*
X0366430Y0402721D01*
X0366416Y0402845D01*
X0366406Y0402969D01*
X0366400Y0403094D01*
X0366398Y0403219D01*
X0333394Y0414300D02*
X0333396Y0414453D01*
X0333402Y0414607D01*
X0333412Y0414760D01*
X0333426Y0414912D01*
X0333444Y0415065D01*
X0333466Y0415216D01*
X0333491Y0415367D01*
X0333521Y0415518D01*
X0333555Y0415668D01*
X0333592Y0415816D01*
X0333633Y0415964D01*
X0333678Y0416110D01*
X0333727Y0416256D01*
X0333780Y0416400D01*
X0333836Y0416542D01*
X0333896Y0416683D01*
X0333960Y0416823D01*
X0334027Y0416961D01*
X0334098Y0417097D01*
X0334173Y0417231D01*
X0334250Y0417363D01*
X0334332Y0417493D01*
X0334416Y0417621D01*
X0334504Y0417747D01*
X0334595Y0417870D01*
X0334689Y0417991D01*
X0334787Y0418109D01*
X0334887Y0418225D01*
X0334991Y0418338D01*
X0335097Y0418449D01*
X0335206Y0418557D01*
X0335318Y0418662D01*
X0335432Y0418763D01*
X0335550Y0418862D01*
X0335669Y0418958D01*
X0335791Y0419051D01*
X0335916Y0419140D01*
X0336043Y0419227D01*
X0336172Y0419309D01*
X0336303Y0419389D01*
X0336436Y0419465D01*
X0336571Y0419538D01*
X0336708Y0419607D01*
X0336847Y0419672D01*
X0336987Y0419734D01*
X0337129Y0419792D01*
X0337272Y0419847D01*
X0337417Y0419898D01*
X0337563Y0419945D01*
X0337710Y0419988D01*
X0337858Y0420027D01*
X0338007Y0420063D01*
X0338157Y0420094D01*
X0338308Y0420122D01*
X0338459Y0420146D01*
X0338612Y0420166D01*
X0338764Y0420182D01*
X0338917Y0420194D01*
X0339070Y0420202D01*
X0339223Y0420206D01*
X0339377Y0420206D01*
X0339530Y0420202D01*
X0339683Y0420194D01*
X0339836Y0420182D01*
X0339988Y0420166D01*
X0340141Y0420146D01*
X0340292Y0420122D01*
X0340443Y0420094D01*
X0340593Y0420063D01*
X0340742Y0420027D01*
X0340890Y0419988D01*
X0341037Y0419945D01*
X0341183Y0419898D01*
X0341328Y0419847D01*
X0341471Y0419792D01*
X0341613Y0419734D01*
X0341753Y0419672D01*
X0341892Y0419607D01*
X0342029Y0419538D01*
X0342164Y0419465D01*
X0342297Y0419389D01*
X0342428Y0419309D01*
X0342557Y0419227D01*
X0342684Y0419140D01*
X0342809Y0419051D01*
X0342931Y0418958D01*
X0343050Y0418862D01*
X0343168Y0418763D01*
X0343282Y0418662D01*
X0343394Y0418557D01*
X0343503Y0418449D01*
X0343609Y0418338D01*
X0343713Y0418225D01*
X0343813Y0418109D01*
X0343911Y0417991D01*
X0344005Y0417870D01*
X0344096Y0417747D01*
X0344184Y0417621D01*
X0344268Y0417493D01*
X0344350Y0417363D01*
X0344427Y0417231D01*
X0344502Y0417097D01*
X0344573Y0416961D01*
X0344640Y0416823D01*
X0344704Y0416683D01*
X0344764Y0416542D01*
X0344820Y0416400D01*
X0344873Y0416256D01*
X0344922Y0416110D01*
X0344967Y0415964D01*
X0345008Y0415816D01*
X0345045Y0415668D01*
X0345079Y0415518D01*
X0345109Y0415367D01*
X0345134Y0415216D01*
X0345156Y0415065D01*
X0345174Y0414912D01*
X0345188Y0414760D01*
X0345198Y0414607D01*
X0345204Y0414453D01*
X0345206Y0414300D01*
X0345204Y0414147D01*
X0345198Y0413993D01*
X0345188Y0413840D01*
X0345174Y0413688D01*
X0345156Y0413535D01*
X0345134Y0413384D01*
X0345109Y0413233D01*
X0345079Y0413082D01*
X0345045Y0412932D01*
X0345008Y0412784D01*
X0344967Y0412636D01*
X0344922Y0412490D01*
X0344873Y0412344D01*
X0344820Y0412200D01*
X0344764Y0412058D01*
X0344704Y0411917D01*
X0344640Y0411777D01*
X0344573Y0411639D01*
X0344502Y0411503D01*
X0344427Y0411369D01*
X0344350Y0411237D01*
X0344268Y0411107D01*
X0344184Y0410979D01*
X0344096Y0410853D01*
X0344005Y0410730D01*
X0343911Y0410609D01*
X0343813Y0410491D01*
X0343713Y0410375D01*
X0343609Y0410262D01*
X0343503Y0410151D01*
X0343394Y0410043D01*
X0343282Y0409938D01*
X0343168Y0409837D01*
X0343050Y0409738D01*
X0342931Y0409642D01*
X0342809Y0409549D01*
X0342684Y0409460D01*
X0342557Y0409373D01*
X0342428Y0409291D01*
X0342297Y0409211D01*
X0342164Y0409135D01*
X0342029Y0409062D01*
X0341892Y0408993D01*
X0341753Y0408928D01*
X0341613Y0408866D01*
X0341471Y0408808D01*
X0341328Y0408753D01*
X0341183Y0408702D01*
X0341037Y0408655D01*
X0340890Y0408612D01*
X0340742Y0408573D01*
X0340593Y0408537D01*
X0340443Y0408506D01*
X0340292Y0408478D01*
X0340141Y0408454D01*
X0339988Y0408434D01*
X0339836Y0408418D01*
X0339683Y0408406D01*
X0339530Y0408398D01*
X0339377Y0408394D01*
X0339223Y0408394D01*
X0339070Y0408398D01*
X0338917Y0408406D01*
X0338764Y0408418D01*
X0338612Y0408434D01*
X0338459Y0408454D01*
X0338308Y0408478D01*
X0338157Y0408506D01*
X0338007Y0408537D01*
X0337858Y0408573D01*
X0337710Y0408612D01*
X0337563Y0408655D01*
X0337417Y0408702D01*
X0337272Y0408753D01*
X0337129Y0408808D01*
X0336987Y0408866D01*
X0336847Y0408928D01*
X0336708Y0408993D01*
X0336571Y0409062D01*
X0336436Y0409135D01*
X0336303Y0409211D01*
X0336172Y0409291D01*
X0336043Y0409373D01*
X0335916Y0409460D01*
X0335791Y0409549D01*
X0335669Y0409642D01*
X0335550Y0409738D01*
X0335432Y0409837D01*
X0335318Y0409938D01*
X0335206Y0410043D01*
X0335097Y0410151D01*
X0334991Y0410262D01*
X0334887Y0410375D01*
X0334787Y0410491D01*
X0334689Y0410609D01*
X0334595Y0410730D01*
X0334504Y0410853D01*
X0334416Y0410979D01*
X0334332Y0411107D01*
X0334250Y0411237D01*
X0334173Y0411369D01*
X0334098Y0411503D01*
X0334027Y0411639D01*
X0333960Y0411777D01*
X0333896Y0411917D01*
X0333836Y0412058D01*
X0333780Y0412200D01*
X0333727Y0412344D01*
X0333678Y0412490D01*
X0333633Y0412636D01*
X0333592Y0412784D01*
X0333555Y0412932D01*
X0333521Y0413082D01*
X0333491Y0413233D01*
X0333466Y0413384D01*
X0333444Y0413535D01*
X0333426Y0413688D01*
X0333412Y0413840D01*
X0333402Y0413993D01*
X0333396Y0414147D01*
X0333394Y0414300D01*
X0181407Y0402272D02*
X0181409Y0402412D01*
X0181415Y0402552D01*
X0181425Y0402691D01*
X0181439Y0402830D01*
X0181457Y0402969D01*
X0181478Y0403107D01*
X0181504Y0403245D01*
X0181534Y0403382D01*
X0181567Y0403517D01*
X0181605Y0403652D01*
X0181646Y0403786D01*
X0181691Y0403919D01*
X0181739Y0404050D01*
X0181792Y0404179D01*
X0181848Y0404308D01*
X0181907Y0404434D01*
X0181971Y0404559D01*
X0182037Y0404682D01*
X0182108Y0404803D01*
X0182181Y0404922D01*
X0182258Y0405039D01*
X0182339Y0405153D01*
X0182422Y0405265D01*
X0182509Y0405375D01*
X0182599Y0405483D01*
X0182691Y0405587D01*
X0182787Y0405689D01*
X0182886Y0405789D01*
X0182987Y0405885D01*
X0183091Y0405979D01*
X0183198Y0406069D01*
X0183307Y0406156D01*
X0183419Y0406241D01*
X0183533Y0406322D01*
X0183649Y0406400D01*
X0183767Y0406474D01*
X0183888Y0406545D01*
X0184010Y0406613D01*
X0184135Y0406677D01*
X0184261Y0406738D01*
X0184388Y0406795D01*
X0184518Y0406848D01*
X0184649Y0406898D01*
X0184781Y0406943D01*
X0184914Y0406986D01*
X0185049Y0407024D01*
X0185184Y0407058D01*
X0185321Y0407089D01*
X0185458Y0407116D01*
X0185596Y0407138D01*
X0185735Y0407157D01*
X0185874Y0407172D01*
X0186013Y0407183D01*
X0186153Y0407190D01*
X0186293Y0407193D01*
X0186433Y0407192D01*
X0186573Y0407187D01*
X0186712Y0407178D01*
X0186852Y0407165D01*
X0186991Y0407148D01*
X0187129Y0407127D01*
X0187267Y0407103D01*
X0187404Y0407074D01*
X0187540Y0407042D01*
X0187675Y0407005D01*
X0187809Y0406965D01*
X0187942Y0406921D01*
X0188073Y0406873D01*
X0188203Y0406822D01*
X0188332Y0406767D01*
X0188459Y0406708D01*
X0188584Y0406645D01*
X0188707Y0406580D01*
X0188829Y0406510D01*
X0188948Y0406437D01*
X0189066Y0406361D01*
X0189181Y0406282D01*
X0189294Y0406199D01*
X0189404Y0406113D01*
X0189512Y0406024D01*
X0189617Y0405932D01*
X0189720Y0405837D01*
X0189820Y0405739D01*
X0189917Y0405639D01*
X0190011Y0405535D01*
X0190103Y0405429D01*
X0190191Y0405321D01*
X0190276Y0405210D01*
X0190358Y0405096D01*
X0190437Y0404980D01*
X0190512Y0404863D01*
X0190584Y0404743D01*
X0190652Y0404621D01*
X0190717Y0404497D01*
X0190779Y0404371D01*
X0190837Y0404244D01*
X0190891Y0404115D01*
X0190942Y0403984D01*
X0190988Y0403852D01*
X0191031Y0403719D01*
X0191071Y0403585D01*
X0191106Y0403450D01*
X0191138Y0403313D01*
X0191165Y0403176D01*
X0191189Y0403038D01*
X0191209Y0402900D01*
X0191225Y0402761D01*
X0191237Y0402621D01*
X0191245Y0402482D01*
X0191249Y0402342D01*
X0191249Y0402202D01*
X0191245Y0402062D01*
X0191237Y0401923D01*
X0191225Y0401783D01*
X0191209Y0401644D01*
X0191189Y0401506D01*
X0191165Y0401368D01*
X0191138Y0401231D01*
X0191106Y0401094D01*
X0191071Y0400959D01*
X0191031Y0400825D01*
X0190988Y0400692D01*
X0190942Y0400560D01*
X0190891Y0400429D01*
X0190837Y0400300D01*
X0190779Y0400173D01*
X0190717Y0400047D01*
X0190652Y0399923D01*
X0190584Y0399801D01*
X0190512Y0399681D01*
X0190437Y0399564D01*
X0190358Y0399448D01*
X0190276Y0399334D01*
X0190191Y0399223D01*
X0190103Y0399115D01*
X0190011Y0399009D01*
X0189917Y0398905D01*
X0189820Y0398805D01*
X0189720Y0398707D01*
X0189617Y0398612D01*
X0189512Y0398520D01*
X0189404Y0398431D01*
X0189294Y0398345D01*
X0189181Y0398262D01*
X0189066Y0398183D01*
X0188948Y0398107D01*
X0188829Y0398034D01*
X0188707Y0397964D01*
X0188584Y0397899D01*
X0188459Y0397836D01*
X0188332Y0397777D01*
X0188203Y0397722D01*
X0188073Y0397671D01*
X0187942Y0397623D01*
X0187809Y0397579D01*
X0187675Y0397539D01*
X0187540Y0397502D01*
X0187404Y0397470D01*
X0187267Y0397441D01*
X0187129Y0397417D01*
X0186991Y0397396D01*
X0186852Y0397379D01*
X0186712Y0397366D01*
X0186573Y0397357D01*
X0186433Y0397352D01*
X0186293Y0397351D01*
X0186153Y0397354D01*
X0186013Y0397361D01*
X0185874Y0397372D01*
X0185735Y0397387D01*
X0185596Y0397406D01*
X0185458Y0397428D01*
X0185321Y0397455D01*
X0185184Y0397486D01*
X0185049Y0397520D01*
X0184914Y0397558D01*
X0184781Y0397601D01*
X0184649Y0397646D01*
X0184518Y0397696D01*
X0184388Y0397749D01*
X0184261Y0397806D01*
X0184135Y0397867D01*
X0184010Y0397931D01*
X0183888Y0397999D01*
X0183767Y0398070D01*
X0183649Y0398144D01*
X0183533Y0398222D01*
X0183419Y0398303D01*
X0183307Y0398388D01*
X0183198Y0398475D01*
X0183091Y0398565D01*
X0182987Y0398659D01*
X0182886Y0398755D01*
X0182787Y0398855D01*
X0182691Y0398957D01*
X0182599Y0399061D01*
X0182509Y0399169D01*
X0182422Y0399279D01*
X0182339Y0399391D01*
X0182258Y0399505D01*
X0182181Y0399622D01*
X0182108Y0399741D01*
X0182037Y0399862D01*
X0181971Y0399985D01*
X0181907Y0400110D01*
X0181848Y0400236D01*
X0181792Y0400365D01*
X0181739Y0400494D01*
X0181691Y0400625D01*
X0181646Y0400758D01*
X0181605Y0400892D01*
X0181567Y0401027D01*
X0181534Y0401162D01*
X0181504Y0401299D01*
X0181478Y0401437D01*
X0181457Y0401575D01*
X0181439Y0401714D01*
X0181425Y0401853D01*
X0181415Y0401992D01*
X0181409Y0402132D01*
X0181407Y0402272D01*
X0122351Y0402272D02*
X0122353Y0402412D01*
X0122359Y0402552D01*
X0122369Y0402691D01*
X0122383Y0402830D01*
X0122401Y0402969D01*
X0122422Y0403107D01*
X0122448Y0403245D01*
X0122478Y0403382D01*
X0122511Y0403517D01*
X0122549Y0403652D01*
X0122590Y0403786D01*
X0122635Y0403919D01*
X0122683Y0404050D01*
X0122736Y0404179D01*
X0122792Y0404308D01*
X0122851Y0404434D01*
X0122915Y0404559D01*
X0122981Y0404682D01*
X0123052Y0404803D01*
X0123125Y0404922D01*
X0123202Y0405039D01*
X0123283Y0405153D01*
X0123366Y0405265D01*
X0123453Y0405375D01*
X0123543Y0405483D01*
X0123635Y0405587D01*
X0123731Y0405689D01*
X0123830Y0405789D01*
X0123931Y0405885D01*
X0124035Y0405979D01*
X0124142Y0406069D01*
X0124251Y0406156D01*
X0124363Y0406241D01*
X0124477Y0406322D01*
X0124593Y0406400D01*
X0124711Y0406474D01*
X0124832Y0406545D01*
X0124954Y0406613D01*
X0125079Y0406677D01*
X0125205Y0406738D01*
X0125332Y0406795D01*
X0125462Y0406848D01*
X0125593Y0406898D01*
X0125725Y0406943D01*
X0125858Y0406986D01*
X0125993Y0407024D01*
X0126128Y0407058D01*
X0126265Y0407089D01*
X0126402Y0407116D01*
X0126540Y0407138D01*
X0126679Y0407157D01*
X0126818Y0407172D01*
X0126957Y0407183D01*
X0127097Y0407190D01*
X0127237Y0407193D01*
X0127377Y0407192D01*
X0127517Y0407187D01*
X0127656Y0407178D01*
X0127796Y0407165D01*
X0127935Y0407148D01*
X0128073Y0407127D01*
X0128211Y0407103D01*
X0128348Y0407074D01*
X0128484Y0407042D01*
X0128619Y0407005D01*
X0128753Y0406965D01*
X0128886Y0406921D01*
X0129017Y0406873D01*
X0129147Y0406822D01*
X0129276Y0406767D01*
X0129403Y0406708D01*
X0129528Y0406645D01*
X0129651Y0406580D01*
X0129773Y0406510D01*
X0129892Y0406437D01*
X0130010Y0406361D01*
X0130125Y0406282D01*
X0130238Y0406199D01*
X0130348Y0406113D01*
X0130456Y0406024D01*
X0130561Y0405932D01*
X0130664Y0405837D01*
X0130764Y0405739D01*
X0130861Y0405639D01*
X0130955Y0405535D01*
X0131047Y0405429D01*
X0131135Y0405321D01*
X0131220Y0405210D01*
X0131302Y0405096D01*
X0131381Y0404980D01*
X0131456Y0404863D01*
X0131528Y0404743D01*
X0131596Y0404621D01*
X0131661Y0404497D01*
X0131723Y0404371D01*
X0131781Y0404244D01*
X0131835Y0404115D01*
X0131886Y0403984D01*
X0131932Y0403852D01*
X0131975Y0403719D01*
X0132015Y0403585D01*
X0132050Y0403450D01*
X0132082Y0403313D01*
X0132109Y0403176D01*
X0132133Y0403038D01*
X0132153Y0402900D01*
X0132169Y0402761D01*
X0132181Y0402621D01*
X0132189Y0402482D01*
X0132193Y0402342D01*
X0132193Y0402202D01*
X0132189Y0402062D01*
X0132181Y0401923D01*
X0132169Y0401783D01*
X0132153Y0401644D01*
X0132133Y0401506D01*
X0132109Y0401368D01*
X0132082Y0401231D01*
X0132050Y0401094D01*
X0132015Y0400959D01*
X0131975Y0400825D01*
X0131932Y0400692D01*
X0131886Y0400560D01*
X0131835Y0400429D01*
X0131781Y0400300D01*
X0131723Y0400173D01*
X0131661Y0400047D01*
X0131596Y0399923D01*
X0131528Y0399801D01*
X0131456Y0399681D01*
X0131381Y0399564D01*
X0131302Y0399448D01*
X0131220Y0399334D01*
X0131135Y0399223D01*
X0131047Y0399115D01*
X0130955Y0399009D01*
X0130861Y0398905D01*
X0130764Y0398805D01*
X0130664Y0398707D01*
X0130561Y0398612D01*
X0130456Y0398520D01*
X0130348Y0398431D01*
X0130238Y0398345D01*
X0130125Y0398262D01*
X0130010Y0398183D01*
X0129892Y0398107D01*
X0129773Y0398034D01*
X0129651Y0397964D01*
X0129528Y0397899D01*
X0129403Y0397836D01*
X0129276Y0397777D01*
X0129147Y0397722D01*
X0129017Y0397671D01*
X0128886Y0397623D01*
X0128753Y0397579D01*
X0128619Y0397539D01*
X0128484Y0397502D01*
X0128348Y0397470D01*
X0128211Y0397441D01*
X0128073Y0397417D01*
X0127935Y0397396D01*
X0127796Y0397379D01*
X0127656Y0397366D01*
X0127517Y0397357D01*
X0127377Y0397352D01*
X0127237Y0397351D01*
X0127097Y0397354D01*
X0126957Y0397361D01*
X0126818Y0397372D01*
X0126679Y0397387D01*
X0126540Y0397406D01*
X0126402Y0397428D01*
X0126265Y0397455D01*
X0126128Y0397486D01*
X0125993Y0397520D01*
X0125858Y0397558D01*
X0125725Y0397601D01*
X0125593Y0397646D01*
X0125462Y0397696D01*
X0125332Y0397749D01*
X0125205Y0397806D01*
X0125079Y0397867D01*
X0124954Y0397931D01*
X0124832Y0397999D01*
X0124711Y0398070D01*
X0124593Y0398144D01*
X0124477Y0398222D01*
X0124363Y0398303D01*
X0124251Y0398388D01*
X0124142Y0398475D01*
X0124035Y0398565D01*
X0123931Y0398659D01*
X0123830Y0398755D01*
X0123731Y0398855D01*
X0123635Y0398957D01*
X0123543Y0399061D01*
X0123453Y0399169D01*
X0123366Y0399279D01*
X0123283Y0399391D01*
X0123202Y0399505D01*
X0123125Y0399622D01*
X0123052Y0399741D01*
X0122981Y0399862D01*
X0122915Y0399985D01*
X0122851Y0400110D01*
X0122792Y0400236D01*
X0122736Y0400365D01*
X0122683Y0400494D01*
X0122635Y0400625D01*
X0122590Y0400758D01*
X0122549Y0400892D01*
X0122511Y0401027D01*
X0122478Y0401162D01*
X0122448Y0401299D01*
X0122422Y0401437D01*
X0122401Y0401575D01*
X0122383Y0401714D01*
X0122369Y0401853D01*
X0122359Y0401992D01*
X0122353Y0402132D01*
X0122351Y0402272D01*
X0101407Y0402272D02*
X0101409Y0402412D01*
X0101415Y0402552D01*
X0101425Y0402691D01*
X0101439Y0402830D01*
X0101457Y0402969D01*
X0101478Y0403107D01*
X0101504Y0403245D01*
X0101534Y0403382D01*
X0101567Y0403517D01*
X0101605Y0403652D01*
X0101646Y0403786D01*
X0101691Y0403919D01*
X0101739Y0404050D01*
X0101792Y0404179D01*
X0101848Y0404308D01*
X0101907Y0404434D01*
X0101971Y0404559D01*
X0102037Y0404682D01*
X0102108Y0404803D01*
X0102181Y0404922D01*
X0102258Y0405039D01*
X0102339Y0405153D01*
X0102422Y0405265D01*
X0102509Y0405375D01*
X0102599Y0405483D01*
X0102691Y0405587D01*
X0102787Y0405689D01*
X0102886Y0405789D01*
X0102987Y0405885D01*
X0103091Y0405979D01*
X0103198Y0406069D01*
X0103307Y0406156D01*
X0103419Y0406241D01*
X0103533Y0406322D01*
X0103649Y0406400D01*
X0103767Y0406474D01*
X0103888Y0406545D01*
X0104010Y0406613D01*
X0104135Y0406677D01*
X0104261Y0406738D01*
X0104388Y0406795D01*
X0104518Y0406848D01*
X0104649Y0406898D01*
X0104781Y0406943D01*
X0104914Y0406986D01*
X0105049Y0407024D01*
X0105184Y0407058D01*
X0105321Y0407089D01*
X0105458Y0407116D01*
X0105596Y0407138D01*
X0105735Y0407157D01*
X0105874Y0407172D01*
X0106013Y0407183D01*
X0106153Y0407190D01*
X0106293Y0407193D01*
X0106433Y0407192D01*
X0106573Y0407187D01*
X0106712Y0407178D01*
X0106852Y0407165D01*
X0106991Y0407148D01*
X0107129Y0407127D01*
X0107267Y0407103D01*
X0107404Y0407074D01*
X0107540Y0407042D01*
X0107675Y0407005D01*
X0107809Y0406965D01*
X0107942Y0406921D01*
X0108073Y0406873D01*
X0108203Y0406822D01*
X0108332Y0406767D01*
X0108459Y0406708D01*
X0108584Y0406645D01*
X0108707Y0406580D01*
X0108829Y0406510D01*
X0108948Y0406437D01*
X0109066Y0406361D01*
X0109181Y0406282D01*
X0109294Y0406199D01*
X0109404Y0406113D01*
X0109512Y0406024D01*
X0109617Y0405932D01*
X0109720Y0405837D01*
X0109820Y0405739D01*
X0109917Y0405639D01*
X0110011Y0405535D01*
X0110103Y0405429D01*
X0110191Y0405321D01*
X0110276Y0405210D01*
X0110358Y0405096D01*
X0110437Y0404980D01*
X0110512Y0404863D01*
X0110584Y0404743D01*
X0110652Y0404621D01*
X0110717Y0404497D01*
X0110779Y0404371D01*
X0110837Y0404244D01*
X0110891Y0404115D01*
X0110942Y0403984D01*
X0110988Y0403852D01*
X0111031Y0403719D01*
X0111071Y0403585D01*
X0111106Y0403450D01*
X0111138Y0403313D01*
X0111165Y0403176D01*
X0111189Y0403038D01*
X0111209Y0402900D01*
X0111225Y0402761D01*
X0111237Y0402621D01*
X0111245Y0402482D01*
X0111249Y0402342D01*
X0111249Y0402202D01*
X0111245Y0402062D01*
X0111237Y0401923D01*
X0111225Y0401783D01*
X0111209Y0401644D01*
X0111189Y0401506D01*
X0111165Y0401368D01*
X0111138Y0401231D01*
X0111106Y0401094D01*
X0111071Y0400959D01*
X0111031Y0400825D01*
X0110988Y0400692D01*
X0110942Y0400560D01*
X0110891Y0400429D01*
X0110837Y0400300D01*
X0110779Y0400173D01*
X0110717Y0400047D01*
X0110652Y0399923D01*
X0110584Y0399801D01*
X0110512Y0399681D01*
X0110437Y0399564D01*
X0110358Y0399448D01*
X0110276Y0399334D01*
X0110191Y0399223D01*
X0110103Y0399115D01*
X0110011Y0399009D01*
X0109917Y0398905D01*
X0109820Y0398805D01*
X0109720Y0398707D01*
X0109617Y0398612D01*
X0109512Y0398520D01*
X0109404Y0398431D01*
X0109294Y0398345D01*
X0109181Y0398262D01*
X0109066Y0398183D01*
X0108948Y0398107D01*
X0108829Y0398034D01*
X0108707Y0397964D01*
X0108584Y0397899D01*
X0108459Y0397836D01*
X0108332Y0397777D01*
X0108203Y0397722D01*
X0108073Y0397671D01*
X0107942Y0397623D01*
X0107809Y0397579D01*
X0107675Y0397539D01*
X0107540Y0397502D01*
X0107404Y0397470D01*
X0107267Y0397441D01*
X0107129Y0397417D01*
X0106991Y0397396D01*
X0106852Y0397379D01*
X0106712Y0397366D01*
X0106573Y0397357D01*
X0106433Y0397352D01*
X0106293Y0397351D01*
X0106153Y0397354D01*
X0106013Y0397361D01*
X0105874Y0397372D01*
X0105735Y0397387D01*
X0105596Y0397406D01*
X0105458Y0397428D01*
X0105321Y0397455D01*
X0105184Y0397486D01*
X0105049Y0397520D01*
X0104914Y0397558D01*
X0104781Y0397601D01*
X0104649Y0397646D01*
X0104518Y0397696D01*
X0104388Y0397749D01*
X0104261Y0397806D01*
X0104135Y0397867D01*
X0104010Y0397931D01*
X0103888Y0397999D01*
X0103767Y0398070D01*
X0103649Y0398144D01*
X0103533Y0398222D01*
X0103419Y0398303D01*
X0103307Y0398388D01*
X0103198Y0398475D01*
X0103091Y0398565D01*
X0102987Y0398659D01*
X0102886Y0398755D01*
X0102787Y0398855D01*
X0102691Y0398957D01*
X0102599Y0399061D01*
X0102509Y0399169D01*
X0102422Y0399279D01*
X0102339Y0399391D01*
X0102258Y0399505D01*
X0102181Y0399622D01*
X0102108Y0399741D01*
X0102037Y0399862D01*
X0101971Y0399985D01*
X0101907Y0400110D01*
X0101848Y0400236D01*
X0101792Y0400365D01*
X0101739Y0400494D01*
X0101691Y0400625D01*
X0101646Y0400758D01*
X0101605Y0400892D01*
X0101567Y0401027D01*
X0101534Y0401162D01*
X0101504Y0401299D01*
X0101478Y0401437D01*
X0101457Y0401575D01*
X0101439Y0401714D01*
X0101425Y0401853D01*
X0101415Y0401992D01*
X0101409Y0402132D01*
X0101407Y0402272D01*
X0042351Y0402272D02*
X0042353Y0402412D01*
X0042359Y0402552D01*
X0042369Y0402691D01*
X0042383Y0402830D01*
X0042401Y0402969D01*
X0042422Y0403107D01*
X0042448Y0403245D01*
X0042478Y0403382D01*
X0042511Y0403517D01*
X0042549Y0403652D01*
X0042590Y0403786D01*
X0042635Y0403919D01*
X0042683Y0404050D01*
X0042736Y0404179D01*
X0042792Y0404308D01*
X0042851Y0404434D01*
X0042915Y0404559D01*
X0042981Y0404682D01*
X0043052Y0404803D01*
X0043125Y0404922D01*
X0043202Y0405039D01*
X0043283Y0405153D01*
X0043366Y0405265D01*
X0043453Y0405375D01*
X0043543Y0405483D01*
X0043635Y0405587D01*
X0043731Y0405689D01*
X0043830Y0405789D01*
X0043931Y0405885D01*
X0044035Y0405979D01*
X0044142Y0406069D01*
X0044251Y0406156D01*
X0044363Y0406241D01*
X0044477Y0406322D01*
X0044593Y0406400D01*
X0044711Y0406474D01*
X0044832Y0406545D01*
X0044954Y0406613D01*
X0045079Y0406677D01*
X0045205Y0406738D01*
X0045332Y0406795D01*
X0045462Y0406848D01*
X0045593Y0406898D01*
X0045725Y0406943D01*
X0045858Y0406986D01*
X0045993Y0407024D01*
X0046128Y0407058D01*
X0046265Y0407089D01*
X0046402Y0407116D01*
X0046540Y0407138D01*
X0046679Y0407157D01*
X0046818Y0407172D01*
X0046957Y0407183D01*
X0047097Y0407190D01*
X0047237Y0407193D01*
X0047377Y0407192D01*
X0047517Y0407187D01*
X0047656Y0407178D01*
X0047796Y0407165D01*
X0047935Y0407148D01*
X0048073Y0407127D01*
X0048211Y0407103D01*
X0048348Y0407074D01*
X0048484Y0407042D01*
X0048619Y0407005D01*
X0048753Y0406965D01*
X0048886Y0406921D01*
X0049017Y0406873D01*
X0049147Y0406822D01*
X0049276Y0406767D01*
X0049403Y0406708D01*
X0049528Y0406645D01*
X0049651Y0406580D01*
X0049773Y0406510D01*
X0049892Y0406437D01*
X0050010Y0406361D01*
X0050125Y0406282D01*
X0050238Y0406199D01*
X0050348Y0406113D01*
X0050456Y0406024D01*
X0050561Y0405932D01*
X0050664Y0405837D01*
X0050764Y0405739D01*
X0050861Y0405639D01*
X0050955Y0405535D01*
X0051047Y0405429D01*
X0051135Y0405321D01*
X0051220Y0405210D01*
X0051302Y0405096D01*
X0051381Y0404980D01*
X0051456Y0404863D01*
X0051528Y0404743D01*
X0051596Y0404621D01*
X0051661Y0404497D01*
X0051723Y0404371D01*
X0051781Y0404244D01*
X0051835Y0404115D01*
X0051886Y0403984D01*
X0051932Y0403852D01*
X0051975Y0403719D01*
X0052015Y0403585D01*
X0052050Y0403450D01*
X0052082Y0403313D01*
X0052109Y0403176D01*
X0052133Y0403038D01*
X0052153Y0402900D01*
X0052169Y0402761D01*
X0052181Y0402621D01*
X0052189Y0402482D01*
X0052193Y0402342D01*
X0052193Y0402202D01*
X0052189Y0402062D01*
X0052181Y0401923D01*
X0052169Y0401783D01*
X0052153Y0401644D01*
X0052133Y0401506D01*
X0052109Y0401368D01*
X0052082Y0401231D01*
X0052050Y0401094D01*
X0052015Y0400959D01*
X0051975Y0400825D01*
X0051932Y0400692D01*
X0051886Y0400560D01*
X0051835Y0400429D01*
X0051781Y0400300D01*
X0051723Y0400173D01*
X0051661Y0400047D01*
X0051596Y0399923D01*
X0051528Y0399801D01*
X0051456Y0399681D01*
X0051381Y0399564D01*
X0051302Y0399448D01*
X0051220Y0399334D01*
X0051135Y0399223D01*
X0051047Y0399115D01*
X0050955Y0399009D01*
X0050861Y0398905D01*
X0050764Y0398805D01*
X0050664Y0398707D01*
X0050561Y0398612D01*
X0050456Y0398520D01*
X0050348Y0398431D01*
X0050238Y0398345D01*
X0050125Y0398262D01*
X0050010Y0398183D01*
X0049892Y0398107D01*
X0049773Y0398034D01*
X0049651Y0397964D01*
X0049528Y0397899D01*
X0049403Y0397836D01*
X0049276Y0397777D01*
X0049147Y0397722D01*
X0049017Y0397671D01*
X0048886Y0397623D01*
X0048753Y0397579D01*
X0048619Y0397539D01*
X0048484Y0397502D01*
X0048348Y0397470D01*
X0048211Y0397441D01*
X0048073Y0397417D01*
X0047935Y0397396D01*
X0047796Y0397379D01*
X0047656Y0397366D01*
X0047517Y0397357D01*
X0047377Y0397352D01*
X0047237Y0397351D01*
X0047097Y0397354D01*
X0046957Y0397361D01*
X0046818Y0397372D01*
X0046679Y0397387D01*
X0046540Y0397406D01*
X0046402Y0397428D01*
X0046265Y0397455D01*
X0046128Y0397486D01*
X0045993Y0397520D01*
X0045858Y0397558D01*
X0045725Y0397601D01*
X0045593Y0397646D01*
X0045462Y0397696D01*
X0045332Y0397749D01*
X0045205Y0397806D01*
X0045079Y0397867D01*
X0044954Y0397931D01*
X0044832Y0397999D01*
X0044711Y0398070D01*
X0044593Y0398144D01*
X0044477Y0398222D01*
X0044363Y0398303D01*
X0044251Y0398388D01*
X0044142Y0398475D01*
X0044035Y0398565D01*
X0043931Y0398659D01*
X0043830Y0398755D01*
X0043731Y0398855D01*
X0043635Y0398957D01*
X0043543Y0399061D01*
X0043453Y0399169D01*
X0043366Y0399279D01*
X0043283Y0399391D01*
X0043202Y0399505D01*
X0043125Y0399622D01*
X0043052Y0399741D01*
X0042981Y0399862D01*
X0042915Y0399985D01*
X0042851Y0400110D01*
X0042792Y0400236D01*
X0042736Y0400365D01*
X0042683Y0400494D01*
X0042635Y0400625D01*
X0042590Y0400758D01*
X0042549Y0400892D01*
X0042511Y0401027D01*
X0042478Y0401162D01*
X0042448Y0401299D01*
X0042422Y0401437D01*
X0042401Y0401575D01*
X0042383Y0401714D01*
X0042369Y0401853D01*
X0042359Y0401992D01*
X0042353Y0402132D01*
X0042351Y0402272D01*
X0333394Y0219300D02*
X0333396Y0219453D01*
X0333402Y0219607D01*
X0333412Y0219760D01*
X0333426Y0219912D01*
X0333444Y0220065D01*
X0333466Y0220216D01*
X0333491Y0220367D01*
X0333521Y0220518D01*
X0333555Y0220668D01*
X0333592Y0220816D01*
X0333633Y0220964D01*
X0333678Y0221110D01*
X0333727Y0221256D01*
X0333780Y0221400D01*
X0333836Y0221542D01*
X0333896Y0221683D01*
X0333960Y0221823D01*
X0334027Y0221961D01*
X0334098Y0222097D01*
X0334173Y0222231D01*
X0334250Y0222363D01*
X0334332Y0222493D01*
X0334416Y0222621D01*
X0334504Y0222747D01*
X0334595Y0222870D01*
X0334689Y0222991D01*
X0334787Y0223109D01*
X0334887Y0223225D01*
X0334991Y0223338D01*
X0335097Y0223449D01*
X0335206Y0223557D01*
X0335318Y0223662D01*
X0335432Y0223763D01*
X0335550Y0223862D01*
X0335669Y0223958D01*
X0335791Y0224051D01*
X0335916Y0224140D01*
X0336043Y0224227D01*
X0336172Y0224309D01*
X0336303Y0224389D01*
X0336436Y0224465D01*
X0336571Y0224538D01*
X0336708Y0224607D01*
X0336847Y0224672D01*
X0336987Y0224734D01*
X0337129Y0224792D01*
X0337272Y0224847D01*
X0337417Y0224898D01*
X0337563Y0224945D01*
X0337710Y0224988D01*
X0337858Y0225027D01*
X0338007Y0225063D01*
X0338157Y0225094D01*
X0338308Y0225122D01*
X0338459Y0225146D01*
X0338612Y0225166D01*
X0338764Y0225182D01*
X0338917Y0225194D01*
X0339070Y0225202D01*
X0339223Y0225206D01*
X0339377Y0225206D01*
X0339530Y0225202D01*
X0339683Y0225194D01*
X0339836Y0225182D01*
X0339988Y0225166D01*
X0340141Y0225146D01*
X0340292Y0225122D01*
X0340443Y0225094D01*
X0340593Y0225063D01*
X0340742Y0225027D01*
X0340890Y0224988D01*
X0341037Y0224945D01*
X0341183Y0224898D01*
X0341328Y0224847D01*
X0341471Y0224792D01*
X0341613Y0224734D01*
X0341753Y0224672D01*
X0341892Y0224607D01*
X0342029Y0224538D01*
X0342164Y0224465D01*
X0342297Y0224389D01*
X0342428Y0224309D01*
X0342557Y0224227D01*
X0342684Y0224140D01*
X0342809Y0224051D01*
X0342931Y0223958D01*
X0343050Y0223862D01*
X0343168Y0223763D01*
X0343282Y0223662D01*
X0343394Y0223557D01*
X0343503Y0223449D01*
X0343609Y0223338D01*
X0343713Y0223225D01*
X0343813Y0223109D01*
X0343911Y0222991D01*
X0344005Y0222870D01*
X0344096Y0222747D01*
X0344184Y0222621D01*
X0344268Y0222493D01*
X0344350Y0222363D01*
X0344427Y0222231D01*
X0344502Y0222097D01*
X0344573Y0221961D01*
X0344640Y0221823D01*
X0344704Y0221683D01*
X0344764Y0221542D01*
X0344820Y0221400D01*
X0344873Y0221256D01*
X0344922Y0221110D01*
X0344967Y0220964D01*
X0345008Y0220816D01*
X0345045Y0220668D01*
X0345079Y0220518D01*
X0345109Y0220367D01*
X0345134Y0220216D01*
X0345156Y0220065D01*
X0345174Y0219912D01*
X0345188Y0219760D01*
X0345198Y0219607D01*
X0345204Y0219453D01*
X0345206Y0219300D01*
X0345204Y0219147D01*
X0345198Y0218993D01*
X0345188Y0218840D01*
X0345174Y0218688D01*
X0345156Y0218535D01*
X0345134Y0218384D01*
X0345109Y0218233D01*
X0345079Y0218082D01*
X0345045Y0217932D01*
X0345008Y0217784D01*
X0344967Y0217636D01*
X0344922Y0217490D01*
X0344873Y0217344D01*
X0344820Y0217200D01*
X0344764Y0217058D01*
X0344704Y0216917D01*
X0344640Y0216777D01*
X0344573Y0216639D01*
X0344502Y0216503D01*
X0344427Y0216369D01*
X0344350Y0216237D01*
X0344268Y0216107D01*
X0344184Y0215979D01*
X0344096Y0215853D01*
X0344005Y0215730D01*
X0343911Y0215609D01*
X0343813Y0215491D01*
X0343713Y0215375D01*
X0343609Y0215262D01*
X0343503Y0215151D01*
X0343394Y0215043D01*
X0343282Y0214938D01*
X0343168Y0214837D01*
X0343050Y0214738D01*
X0342931Y0214642D01*
X0342809Y0214549D01*
X0342684Y0214460D01*
X0342557Y0214373D01*
X0342428Y0214291D01*
X0342297Y0214211D01*
X0342164Y0214135D01*
X0342029Y0214062D01*
X0341892Y0213993D01*
X0341753Y0213928D01*
X0341613Y0213866D01*
X0341471Y0213808D01*
X0341328Y0213753D01*
X0341183Y0213702D01*
X0341037Y0213655D01*
X0340890Y0213612D01*
X0340742Y0213573D01*
X0340593Y0213537D01*
X0340443Y0213506D01*
X0340292Y0213478D01*
X0340141Y0213454D01*
X0339988Y0213434D01*
X0339836Y0213418D01*
X0339683Y0213406D01*
X0339530Y0213398D01*
X0339377Y0213394D01*
X0339223Y0213394D01*
X0339070Y0213398D01*
X0338917Y0213406D01*
X0338764Y0213418D01*
X0338612Y0213434D01*
X0338459Y0213454D01*
X0338308Y0213478D01*
X0338157Y0213506D01*
X0338007Y0213537D01*
X0337858Y0213573D01*
X0337710Y0213612D01*
X0337563Y0213655D01*
X0337417Y0213702D01*
X0337272Y0213753D01*
X0337129Y0213808D01*
X0336987Y0213866D01*
X0336847Y0213928D01*
X0336708Y0213993D01*
X0336571Y0214062D01*
X0336436Y0214135D01*
X0336303Y0214211D01*
X0336172Y0214291D01*
X0336043Y0214373D01*
X0335916Y0214460D01*
X0335791Y0214549D01*
X0335669Y0214642D01*
X0335550Y0214738D01*
X0335432Y0214837D01*
X0335318Y0214938D01*
X0335206Y0215043D01*
X0335097Y0215151D01*
X0334991Y0215262D01*
X0334887Y0215375D01*
X0334787Y0215491D01*
X0334689Y0215609D01*
X0334595Y0215730D01*
X0334504Y0215853D01*
X0334416Y0215979D01*
X0334332Y0216107D01*
X0334250Y0216237D01*
X0334173Y0216369D01*
X0334098Y0216503D01*
X0334027Y0216639D01*
X0333960Y0216777D01*
X0333896Y0216917D01*
X0333836Y0217058D01*
X0333780Y0217200D01*
X0333727Y0217344D01*
X0333678Y0217490D01*
X0333633Y0217636D01*
X0333592Y0217784D01*
X0333555Y0217932D01*
X0333521Y0218082D01*
X0333491Y0218233D01*
X0333466Y0218384D01*
X0333444Y0218535D01*
X0333426Y0218688D01*
X0333412Y0218840D01*
X0333402Y0218993D01*
X0333396Y0219147D01*
X0333394Y0219300D01*
X0595894Y0414300D02*
X0595896Y0414453D01*
X0595902Y0414607D01*
X0595912Y0414760D01*
X0595926Y0414912D01*
X0595944Y0415065D01*
X0595966Y0415216D01*
X0595991Y0415367D01*
X0596021Y0415518D01*
X0596055Y0415668D01*
X0596092Y0415816D01*
X0596133Y0415964D01*
X0596178Y0416110D01*
X0596227Y0416256D01*
X0596280Y0416400D01*
X0596336Y0416542D01*
X0596396Y0416683D01*
X0596460Y0416823D01*
X0596527Y0416961D01*
X0596598Y0417097D01*
X0596673Y0417231D01*
X0596750Y0417363D01*
X0596832Y0417493D01*
X0596916Y0417621D01*
X0597004Y0417747D01*
X0597095Y0417870D01*
X0597189Y0417991D01*
X0597287Y0418109D01*
X0597387Y0418225D01*
X0597491Y0418338D01*
X0597597Y0418449D01*
X0597706Y0418557D01*
X0597818Y0418662D01*
X0597932Y0418763D01*
X0598050Y0418862D01*
X0598169Y0418958D01*
X0598291Y0419051D01*
X0598416Y0419140D01*
X0598543Y0419227D01*
X0598672Y0419309D01*
X0598803Y0419389D01*
X0598936Y0419465D01*
X0599071Y0419538D01*
X0599208Y0419607D01*
X0599347Y0419672D01*
X0599487Y0419734D01*
X0599629Y0419792D01*
X0599772Y0419847D01*
X0599917Y0419898D01*
X0600063Y0419945D01*
X0600210Y0419988D01*
X0600358Y0420027D01*
X0600507Y0420063D01*
X0600657Y0420094D01*
X0600808Y0420122D01*
X0600959Y0420146D01*
X0601112Y0420166D01*
X0601264Y0420182D01*
X0601417Y0420194D01*
X0601570Y0420202D01*
X0601723Y0420206D01*
X0601877Y0420206D01*
X0602030Y0420202D01*
X0602183Y0420194D01*
X0602336Y0420182D01*
X0602488Y0420166D01*
X0602641Y0420146D01*
X0602792Y0420122D01*
X0602943Y0420094D01*
X0603093Y0420063D01*
X0603242Y0420027D01*
X0603390Y0419988D01*
X0603537Y0419945D01*
X0603683Y0419898D01*
X0603828Y0419847D01*
X0603971Y0419792D01*
X0604113Y0419734D01*
X0604253Y0419672D01*
X0604392Y0419607D01*
X0604529Y0419538D01*
X0604664Y0419465D01*
X0604797Y0419389D01*
X0604928Y0419309D01*
X0605057Y0419227D01*
X0605184Y0419140D01*
X0605309Y0419051D01*
X0605431Y0418958D01*
X0605550Y0418862D01*
X0605668Y0418763D01*
X0605782Y0418662D01*
X0605894Y0418557D01*
X0606003Y0418449D01*
X0606109Y0418338D01*
X0606213Y0418225D01*
X0606313Y0418109D01*
X0606411Y0417991D01*
X0606505Y0417870D01*
X0606596Y0417747D01*
X0606684Y0417621D01*
X0606768Y0417493D01*
X0606850Y0417363D01*
X0606927Y0417231D01*
X0607002Y0417097D01*
X0607073Y0416961D01*
X0607140Y0416823D01*
X0607204Y0416683D01*
X0607264Y0416542D01*
X0607320Y0416400D01*
X0607373Y0416256D01*
X0607422Y0416110D01*
X0607467Y0415964D01*
X0607508Y0415816D01*
X0607545Y0415668D01*
X0607579Y0415518D01*
X0607609Y0415367D01*
X0607634Y0415216D01*
X0607656Y0415065D01*
X0607674Y0414912D01*
X0607688Y0414760D01*
X0607698Y0414607D01*
X0607704Y0414453D01*
X0607706Y0414300D01*
X0607704Y0414147D01*
X0607698Y0413993D01*
X0607688Y0413840D01*
X0607674Y0413688D01*
X0607656Y0413535D01*
X0607634Y0413384D01*
X0607609Y0413233D01*
X0607579Y0413082D01*
X0607545Y0412932D01*
X0607508Y0412784D01*
X0607467Y0412636D01*
X0607422Y0412490D01*
X0607373Y0412344D01*
X0607320Y0412200D01*
X0607264Y0412058D01*
X0607204Y0411917D01*
X0607140Y0411777D01*
X0607073Y0411639D01*
X0607002Y0411503D01*
X0606927Y0411369D01*
X0606850Y0411237D01*
X0606768Y0411107D01*
X0606684Y0410979D01*
X0606596Y0410853D01*
X0606505Y0410730D01*
X0606411Y0410609D01*
X0606313Y0410491D01*
X0606213Y0410375D01*
X0606109Y0410262D01*
X0606003Y0410151D01*
X0605894Y0410043D01*
X0605782Y0409938D01*
X0605668Y0409837D01*
X0605550Y0409738D01*
X0605431Y0409642D01*
X0605309Y0409549D01*
X0605184Y0409460D01*
X0605057Y0409373D01*
X0604928Y0409291D01*
X0604797Y0409211D01*
X0604664Y0409135D01*
X0604529Y0409062D01*
X0604392Y0408993D01*
X0604253Y0408928D01*
X0604113Y0408866D01*
X0603971Y0408808D01*
X0603828Y0408753D01*
X0603683Y0408702D01*
X0603537Y0408655D01*
X0603390Y0408612D01*
X0603242Y0408573D01*
X0603093Y0408537D01*
X0602943Y0408506D01*
X0602792Y0408478D01*
X0602641Y0408454D01*
X0602488Y0408434D01*
X0602336Y0408418D01*
X0602183Y0408406D01*
X0602030Y0408398D01*
X0601877Y0408394D01*
X0601723Y0408394D01*
X0601570Y0408398D01*
X0601417Y0408406D01*
X0601264Y0408418D01*
X0601112Y0408434D01*
X0600959Y0408454D01*
X0600808Y0408478D01*
X0600657Y0408506D01*
X0600507Y0408537D01*
X0600358Y0408573D01*
X0600210Y0408612D01*
X0600063Y0408655D01*
X0599917Y0408702D01*
X0599772Y0408753D01*
X0599629Y0408808D01*
X0599487Y0408866D01*
X0599347Y0408928D01*
X0599208Y0408993D01*
X0599071Y0409062D01*
X0598936Y0409135D01*
X0598803Y0409211D01*
X0598672Y0409291D01*
X0598543Y0409373D01*
X0598416Y0409460D01*
X0598291Y0409549D01*
X0598169Y0409642D01*
X0598050Y0409738D01*
X0597932Y0409837D01*
X0597818Y0409938D01*
X0597706Y0410043D01*
X0597597Y0410151D01*
X0597491Y0410262D01*
X0597387Y0410375D01*
X0597287Y0410491D01*
X0597189Y0410609D01*
X0597095Y0410730D01*
X0597004Y0410853D01*
X0596916Y0410979D01*
X0596832Y0411107D01*
X0596750Y0411237D01*
X0596673Y0411369D01*
X0596598Y0411503D01*
X0596527Y0411639D01*
X0596460Y0411777D01*
X0596396Y0411917D01*
X0596336Y0412058D01*
X0596280Y0412200D01*
X0596227Y0412344D01*
X0596178Y0412490D01*
X0596133Y0412636D01*
X0596092Y0412784D01*
X0596055Y0412932D01*
X0596021Y0413082D01*
X0595991Y0413233D01*
X0595966Y0413384D01*
X0595944Y0413535D01*
X0595926Y0413688D01*
X0595912Y0413840D01*
X0595902Y0413993D01*
X0595896Y0414147D01*
X0595894Y0414300D01*
M02*
