%
M48
M72
T01C0.02362
T02C0.02400
T03C0.02756
T04C0.03150
T05C0.03200
T06C0.04000
T07C0.04400
T08C0.05118
T09C0.05512
T10C0.06299
T11C0.07874
T12C0.09843
T13C0.11811
T14C0.11900
T15C0.13900
%
T01
X39300Y33050
X43050Y48050
X46800Y54300
X50550Y60550
X54300Y66800
X86800Y66800
X99300Y65550
X91800Y60550
X96800Y54300
X101800Y48050
X118050Y38050
X125550Y38050
X145550Y48050
X139300Y55550
X139300Y69300
X145550Y68050
X133050Y75550
X100550Y74300
X76800Y41800
X20550Y45550
X18050Y39300
X145550Y28050
X150550Y33050
X183050Y10550
X193050Y5550
X211800Y24300
X246800Y34300
X241800Y54300
X196800Y88050
X201800Y111800
X191800Y114300
X181800Y115550
X211800Y109300
X181800Y141800
X269300Y109300
X301800Y54300
X341800Y44300
X431800Y9300
X481800Y51800
X521800Y84300
X554300Y69300
X559300Y60550
X544300Y56800
X441800Y114300
X431800Y111800
X386800Y134300
X371800Y124300
X381800Y109300
X411800Y146800
X411800Y169300
X426800Y211800
X401800Y239300
X406800Y259300
X426800Y264300
X441800Y254300
X451800Y264300
X466800Y259300
X481800Y269300
X501800Y284300
X514300Y279300
X516800Y274300
X521800Y269300
X506800Y259300
X501800Y239300
X511800Y226800
X521800Y226800
X531800Y226800
X556800Y259300
X579300Y299300
X576800Y306800
X519300Y319300
X514300Y336800
X546800Y376800
X215550Y346800
X156800Y355550
X71800Y391800
X321800Y296800
X336800Y264300
X291800Y264300
X281800Y259300
X261800Y269300
X244300Y269300
X231800Y269300
X221800Y269300
X216800Y259300
X221800Y239300
X244300Y254300
X249300Y246800
X156800Y274300
X154300Y239300
X96800Y256800
X71800Y256800
X71800Y269300
X68050Y286800
X30550Y291800
X25550Y284300
X451800Y239300
X556800Y164300
X591800Y181800
X591800Y191800
X661800Y231800
X621800Y239300
X621800Y259300
X631800Y264300
X641800Y269300
X741800Y264300
X746800Y259300
X764300Y259300
X769300Y264300
X673050Y181800
X695550Y175550
X619300Y138050
X491800Y156800
X626800Y346800
X634300Y369300
X634300Y384300
X626800Y384300
X660550Y363050
T02
X536800Y164300
X536800Y174300
X536800Y184300
X436800Y184300
X436800Y174300
X436800Y164300
X416800Y164300
X416800Y174300
X416800Y184300
T03
X556800Y246800
X546800Y246800
X536800Y246800
X526800Y246800
X506800Y246800
X496800Y246800
X486800Y246800
X476800Y246800
X456800Y246800
X446800Y246800
X436800Y246800
X426800Y246800
X426800Y276800
X436800Y276800
X446800Y276800
X456800Y276800
X476800Y276800
X486800Y276800
X496800Y276800
X506800Y276800
X526800Y276800
X536800Y276800
X546800Y276800
X556800Y276800
X456800Y331800
X446800Y331800
X436800Y331800
X66800Y276800
X76800Y276800
X86800Y276800
X96800Y276800
X116800Y276800
X126800Y276800
X136800Y276800
X146800Y276800
X146800Y246800
X136800Y246800
X126800Y246800
X116800Y246800
X96800Y246800
X86800Y246800
X76800Y246800
X66800Y246800
X164300Y231800
X164300Y221800
X164300Y211800
X661820Y421800
X669300Y421800
X677174Y421800
T04
X321800Y184300
X311800Y184300
X301800Y184300
X479300Y184300
X489300Y184300
X499300Y184300
X86800Y339300
X96800Y339300
X106800Y339300
T05
X731800Y26800
X731800Y36800
X718050Y63050
X718050Y73050
X695550Y73050
X695550Y83050
X679300Y61800
X679300Y51800
X664300Y41800
X654300Y41800
X644300Y41800
X634300Y41800
X654300Y21800
X654300Y11800
X679300Y11800
X679300Y21800
X531800Y41800
X521800Y41800
X511800Y41800
X501800Y41800
X491800Y41800
X481800Y41800
X471800Y41800
X461800Y41800
X451800Y41800
X441800Y41800
X431800Y41800
X421800Y41800
X411800Y41800
X401800Y41800
X401800Y24300
X431800Y24300
X441800Y24300
X441800Y14300
X456800Y14300
X456800Y24300
X477300Y19300
X496300Y19300
X516800Y14300
X516800Y24300
X511800Y71800
X501800Y71800
X491800Y71800
X481800Y71800
X471800Y71800
X461800Y71800
X451800Y71800
X441800Y71800
X431800Y71800
X421800Y71800
X411800Y71800
X401800Y71800
X401800Y96800
X391800Y96800
X381800Y96800
X361800Y96800
X351800Y96800
X341800Y96800
X331800Y96800
X321800Y96800
X311800Y96800
X301800Y96800
X291800Y96800
X276800Y116800
X276800Y126800
X291800Y126800
X301800Y126800
X311800Y126800
X321800Y126800
X331800Y126800
X341800Y126800
X351800Y126800
X361800Y126800
X371800Y139300
X381800Y139300
X381800Y126800
X391800Y126800
X401800Y126800
X411800Y126800
X421800Y126800
X431800Y126800
X441800Y126800
X451800Y126800
X474300Y119300
X474300Y109300
X471800Y96800
X481800Y96800
X491800Y96800
X501800Y96800
X511800Y96800
X521800Y96800
X539300Y109300
X539300Y119300
X521800Y126800
X511800Y126800
X501800Y126800
X491800Y126800
X451800Y96800
X441800Y96800
X431800Y96800
X421800Y96800
X411800Y96800
X471800Y86800
X481800Y86800
X521800Y71800
X531800Y71800
X556800Y96800
X566800Y96800
X576800Y96800
X586800Y96800
X634300Y103050
X634300Y113050
X656800Y113050
X656800Y103050
X654300Y71800
X644300Y71800
X634300Y71800
X664300Y71800
X586800Y126800
X576800Y126800
X566800Y126800
X556800Y126800
X519300Y184300
X509300Y184300
X526800Y201800
X536800Y201800
X546800Y201800
X556800Y201800
X566800Y201800
X576800Y221800
X576800Y231800
X566800Y231800
X556800Y231800
X546800Y231800
X536800Y231800
X526800Y231800
X516800Y231800
X506800Y231800
X496800Y231800
X486800Y231800
X476800Y231800
X466800Y231800
X456800Y231800
X466800Y221800
X456800Y201800
X476800Y201800
X486800Y201800
X506800Y211800
X516800Y211800
X496800Y221800
X436800Y231800
X416800Y231800
X406800Y231800
X396800Y231800
X386800Y231800
X376800Y231800
X366800Y231800
X356800Y231800
X366800Y221800
X366800Y211800
X366800Y201800
X356800Y201800
X376800Y201800
X386800Y201800
X396800Y201800
X406800Y201800
X416800Y201800
X436800Y201800
X406800Y246800
X396800Y246800
X386800Y246800
X376800Y246800
X366800Y246800
X356800Y246800
X346800Y246800
X336800Y246800
X316800Y246800
X306800Y246800
X296800Y246800
X286800Y246800
X276800Y246800
X266800Y246800
X256800Y246800
X236800Y246800
X226800Y246800
X216800Y246800
X206800Y246800
X196800Y246800
X186800Y246800
X176800Y246800
X166800Y246800
X176800Y231800
X186800Y231800
X196800Y231800
X206800Y231800
X216800Y231800
X216800Y221800
X236800Y231800
X256800Y226800
X266800Y226800
X276800Y221800
X276800Y231800
X286800Y231800
X296800Y231800
X306800Y231800
X316800Y231800
X316800Y201800
X306800Y201800
X296800Y201800
X286800Y201800
X331800Y184300
X341800Y184300
X251800Y126800
X241800Y126800
X231800Y126800
X221800Y126800
X211800Y126800
X201800Y126800
X191800Y126800
X181800Y126800
X161800Y126800
X151800Y126800
X141800Y126800
X131800Y126800
X121800Y126800
X111800Y126800
X101800Y126800
X91800Y126800
X91800Y96800
X101800Y96800
X111800Y96800
X121800Y96800
X131800Y96800
X141800Y96800
X151800Y96800
X161800Y96800
X181800Y96800
X191800Y96800
X201800Y96800
X211800Y96800
X221800Y96800
X231800Y96800
X241800Y96800
X251800Y96800
X251800Y74300
X241800Y74300
X231800Y74300
X221800Y74300
X211800Y74300
X201800Y74300
X191800Y74300
X181800Y74300
X171800Y74300
X161800Y74300
X181800Y44300
X191800Y44300
X201800Y44300
X211800Y44300
X221800Y44300
X231800Y44300
X241800Y44300
X251800Y44300
X91800Y81800
X81800Y81800
X24300Y81800
X24300Y71800
X24300Y61800
X24300Y91800
X24300Y101800
X24300Y111800
X24300Y121800
X76800Y201800
X86800Y201800
X116800Y201800
X126800Y201800
X136800Y201800
X146800Y221800
X146800Y231800
X136800Y231800
X126800Y231800
X116800Y231800
X104300Y231800
X104300Y221800
X86800Y231800
X76800Y231800
X126800Y289300
X136800Y291800
X146800Y289300
X156800Y289300
X166800Y276800
X176800Y276800
X186800Y276800
X196800Y276800
X206800Y276800
X216800Y276800
X226800Y276800
X236800Y276800
X256800Y276800
X266800Y276800
X276800Y276800
X286800Y276800
X296800Y276800
X306800Y276800
X316800Y276800
X336800Y276800
X346800Y276800
X356800Y276800
X366800Y276800
X376800Y276800
X386800Y276800
X396800Y276800
X406800Y276800
X406800Y291800
X396800Y291800
X386800Y291800
X376800Y291800
X366800Y291800
X356800Y291800
X346800Y291800
X336800Y291800
X326800Y291800
X316800Y291800
X306800Y291800
X296800Y291800
X286800Y291800
X276800Y291800
X266800Y296800
X276800Y301800
X266800Y311800
X256800Y311800
X256800Y296800
X234300Y311800
X234300Y321800
X256800Y331800
X266800Y331800
X286800Y321800
X296800Y321800
X306800Y321800
X316800Y321800
X326800Y321800
X346800Y321800
X356800Y321800
X366800Y321800
X366800Y311800
X366800Y301800
X376800Y321800
X386800Y321800
X396800Y321800
X419300Y321800
X429300Y306800
X439300Y306800
X449300Y306800
X466800Y291800
X476800Y291800
X476800Y301800
X486800Y301800
X486800Y291800
X496800Y291800
X526800Y291800
X536800Y291800
X546800Y291800
X556800Y291800
X571800Y276800
X581800Y276800
X596800Y276800
X606800Y276800
X616800Y276800
X626800Y276800
X636800Y276800
X646800Y276800
X656800Y276800
X671800Y276800
X686800Y276800
X696800Y276800
X706800Y276800
X716800Y276800
X726800Y276800
X736800Y276800
X746800Y276800
X746800Y246800
X736800Y246800
X726800Y246800
X716800Y246800
X706800Y246800
X696800Y246800
X686800Y246800
X671800Y246800
X656800Y246800
X646800Y246800
X636800Y246800
X626800Y246800
X616800Y246800
X606800Y246800
X596800Y246800
X581800Y246800
X571800Y246800
X596800Y231800
X606800Y231800
X616800Y231800
X626800Y231800
X626800Y221800
X636800Y231800
X636800Y201800
X616800Y201800
X606800Y201800
X596800Y201800
X726800Y231800
X736800Y231800
X686800Y291800
X686800Y301800
X656800Y291800
X646800Y291800
X636800Y291800
X636800Y301800
X626800Y291800
X616800Y291800
X606800Y291800
X596800Y291800
X586800Y291800
X586800Y321800
X596800Y321800
X606800Y321800
X616800Y321800
X626800Y321800
X646800Y321800
X656800Y321800
X653050Y364300
X643050Y364300
X571800Y361800
X561800Y361800
X496800Y331800
X496800Y321800
X466800Y321800
X466800Y331800
X419300Y291800
X406800Y301800
X336800Y301800
X306800Y336800
X306800Y346800
X286800Y354300
X256800Y354300
X246800Y354300
X226800Y354300
X231800Y381800
X231800Y391800
X231800Y401800
X231800Y411800
X214300Y406800
X204300Y411800
X204300Y381800
X214300Y386800
X261800Y381800
X261800Y391800
X261800Y401800
X261800Y411800
X276800Y411800
X286800Y411800
X296800Y411800
X306800Y411800
X276800Y401800
X286800Y381800
X296800Y381800
X306800Y381800
X556800Y321800
X546800Y321800
X536800Y321800
X526800Y301800
X656800Y145550
X656800Y135550
X236800Y201800
X206800Y201800
X196800Y201800
X186800Y201800
X176800Y201800
X176800Y289300
X186800Y289300
X206800Y290550
X216800Y290550
X205550Y305550
X205550Y315550
X186800Y319300
X176800Y319300
X156800Y319300
X146800Y319300
X126800Y319300
X116800Y301800
X106800Y301800
X106800Y291800
X96800Y291800
X86800Y291800
X76800Y291800
X116800Y291800
X136800Y301800
X96800Y321800
X86800Y321800
X76800Y321800
T06
X46800Y11800
X46800Y21800
X56800Y21800
X66800Y21800
X76800Y21800
X76800Y11800
X66800Y11800
X56800Y11800
X86800Y11800
X96800Y11800
X106800Y11800
X116800Y11800
X116800Y21800
X106800Y21800
X96800Y21800
X86800Y21800
X301800Y71800
X311800Y71800
X321800Y71800
X331800Y71800
X341800Y71800
X496800Y144300
X506800Y144300
X516800Y144300
X561800Y144300
X571800Y144300
X581800Y144300
X691800Y133050
X691800Y123050
X691800Y113050
X731800Y135550
X741800Y135550
X741800Y145550
X731800Y145550
X731800Y155550
X741800Y155550
X741800Y165550
X731800Y165550
X731800Y175550
X741800Y175550
X601800Y331800
X591800Y331800
X581800Y331800
X581800Y341800
X591800Y341800
X601800Y341800
X571800Y341800
X561800Y341800
X551800Y341800
X541800Y341800
X541800Y331800
X551800Y331800
X561800Y331800
X571800Y331800
X531800Y331800
X531800Y341800
X196800Y341800
X196800Y331800
X186800Y331800
X176800Y331800
X166800Y331800
X156800Y331800
X156800Y341800
X166800Y341800
X176800Y341800
X186800Y341800
X146800Y341800
X136800Y341800
X126800Y341800
X126800Y331800
X136800Y331800
X146800Y331800
X26800Y386800
X16800Y386800
X16800Y376800
X26800Y376800
X26800Y366800
X16800Y366800
X16800Y356800
X26800Y356800
X26800Y346800
X16800Y346800
X16800Y336800
X26800Y336800
X26800Y326800
X16800Y326800
X16800Y316800
X26800Y316800
X544300Y24300
X554300Y24300
X554300Y14300
X544300Y14300
X564300Y14300
X564300Y24300
X748050Y59300
X748050Y69300
X748050Y79300
T07
X768050Y114300
X768050Y154300
X768050Y166800
X768050Y206800
X771800Y349300
X771800Y389300
T08
X176485Y372745
X186328Y382587
X156800Y382587
X137115Y372745
X127272Y382587
X106328Y382587
X96485Y372745
X76800Y382587
X57115Y372745
X47272Y382587
X66957Y421957
X86643Y421957
X146957Y421957
X166643Y421957
T09
X415335Y415550
X500335Y415550
X650402Y421800
X688198Y421800
T10
X370335Y365550
X415335Y365550
X455335Y365550
X500335Y365550
X455335Y415550
X370335Y415550
T11
X370335Y403219
X415335Y403219
X455335Y403219
X500335Y403219
T12
X186328Y402272
X127272Y402272
X106328Y402272
X47272Y402272
T13
X19300Y19300
X19300Y414300
X764300Y414300
X764300Y19300
X601800Y19300
X339300Y19300
X339300Y219300
X339300Y414300
X601800Y414300
X684300Y219300
T14
X707902Y389300
X726800Y401111
T15
X726800Y377489
M30
